<svg width="754" height="651" viewBox="0 0 754 651" fill="none" xmlns="http://www.w3.org/2000/svg">
<path fill-rule="evenodd" clip-rule="evenodd" d="M431.573 398.239L438.355 386.944L438.849 374.895C438.849 374.895 444.109 372.933 446.527 374.216C446.527 374.216 453.945 372.549 455.655 366.64C455.655 366.64 446.388 368.325 441.484 367.973C441.484 367.973 443.458 347.85 445.599 339.142C445.599 339.142 442.231 328.613 435.414 339.476C428.597 350.339 431.993 359.501 432.647 372.694C433.298 385.884 432.911 393.855 431.573 398.239Z" fill="white"/>
<path fill-rule="evenodd" clip-rule="evenodd" d="M351.681 456.664C351.681 456.664 346.002 454.037 350.475 446.333C351.446 444.658 348.577 444.929 346.845 443.553C343.922 441.231 340.497 437.623 336.977 436.872C336.977 436.872 322.934 439.194 328.627 433.708C334.324 428.222 345.7 432.35 350.376 437.651C350.376 437.651 358 423.881 351.29 403.727C345.081 385.072 341.724 381.172 340.586 373.447C340.586 373.447 333.634 376.49 328.51 374.766C323.389 373.045 320.914 372.064 317.635 371.338C314.357 370.617 316.953 365.618 323.137 366.77C329.317 367.922 337.759 368.452 338.282 364.743C338.282 364.743 328.076 354.028 339.029 342.933C352.442 329.346 385.225 324.514 385.243 337.525C385.261 350.537 380.058 362.824 376.122 386.331C372.185 409.838 372.338 443.937 372.672 452.228C373.003 460.518 372.85 463.626 365.244 462.004C357.637 460.383 356.418 461.51 351.681 456.664Z" fill="white"/>
<path fill-rule="evenodd" clip-rule="evenodd" d="M150.259 506.167C150.259 506.167 118.745 516.036 119.182 519.591C119.619 523.147 121.781 533.795 156.902 534.036C192.022 534.282 264.708 529.564 241.136 522.222C218.755 515.25 226.267 503.18 251.636 500.94C265.362 499.732 247.066 488.223 277.207 482.506C277.207 482.506 255.686 483.296 240.733 491.743C225.78 500.187 228.766 502.786 185.873 502.199C185.873 502.199 160.386 503.842 150.259 506.167Z" fill="white"/>
<path fill-rule="evenodd" clip-rule="evenodd" d="M449.509 493.057C449.509 493.057 480.571 497.999 471.364 504.69C462.161 511.381 514.293 508.86 514.389 518.495C514.488 528.133 478.473 531.685 505.285 544.1C532.101 556.515 586.167 562.441 607.781 542.468C607.781 542.468 623.744 536.246 591.587 526.124C549.241 512.792 531.426 515 500.172 503.63C500.172 503.63 474.198 493.018 449.509 493.057Z" fill="white"/>
<path fill-rule="evenodd" clip-rule="evenodd" d="M289.19 458.631C289.19 458.631 304.876 451.734 291.303 407.78C282 378.339 249.101 373.678 253.901 318.658C253.901 318.658 242.774 320.516 247.736 308.439C252.698 296.363 294.916 305.683 303.041 307.648C311.17 309.613 326.454 315.256 316.366 325.187C316.366 325.187 307.365 336.023 310.491 361.367C310.491 361.367 302.927 363.023 306.146 367.037C307.97 369.313 311.689 370.358 313.745 374.905C318.528 385.489 320.661 399.838 321.33 417.188C321.33 417.188 318.204 455.04 321.575 460.935C321.575 460.935 313.809 462.4 309.161 464.757C309.161 464.757 297.298 459.669 289.19 458.631Z" fill="white"/>
<path fill-rule="evenodd" clip-rule="evenodd" d="M430.465 467.27C430.465 467.27 424.292 440.296 436.133 404.093C447.975 367.89 475.467 359.19 469.137 320.263C469.137 320.263 447.808 321.789 456.947 310.473C456.947 310.473 499.332 295.615 522.848 302.119C522.848 302.119 543.508 305.923 534.398 319.83C534.398 319.83 531.041 325.439 528.9 337.971C526.759 350.501 507.539 362.124 487.501 387.138C467.462 412.157 454.159 439.92 459.703 468.404C459.703 468.404 431.095 467.089 430.465 467.27Z" fill="white"/>
<path fill-rule="evenodd" clip-rule="evenodd" d="M292.814 304.89C292.814 304.89 286.56 282.482 261.119 281.753L272.056 276.637C272.056 276.637 260.657 244.11 318.95 227.145C377.246 210.18 357.467 189.954 351.448 188.067L348.814 183.564C348.814 183.564 374.111 185.418 395.537 177.06C395.537 177.06 396.687 166.745 368.494 165.265L367.404 162.514C367.404 162.514 397.841 154.44 410.587 163.871C410.587 163.871 403.613 168.353 405.152 173.122C405.152 173.122 405.841 177.124 414.02 181C414.02 181 408.136 184.684 409.974 191.606C409.974 191.606 412.162 202.566 459.975 224.06C507.784 245.554 524.679 245.633 521.827 266.031C521.827 266.031 530.73 266.894 534.609 269.874C534.609 269.874 506.965 275.824 505.684 296.364C505.684 296.364 496.996 300.329 485.005 299.234C485.005 299.234 507.315 272.986 470.362 261.77C470.362 261.77 432.554 254.448 427.454 294.33C427.454 294.33 429.355 281.187 423.126 276.486C423.126 276.486 424.287 287.034 415.173 286.786L368.566 287.153C368.566 287.153 359.014 287.232 363.044 276.403C363.044 276.403 346.877 282.041 342.827 300.128L341.471 304.096C341.471 304.096 341.725 268.106 306.562 264.446C275.434 261.206 284.722 291.153 295.213 299.145L300.742 306.04L292.814 304.89ZM332.949 250.31L324.309 249.709C324.309 249.709 319.018 238.975 329.13 234.563C339.239 230.15 327.066 244.467 336.295 245.691C345.528 246.916 348.301 243.49 346.38 240.247C344.458 237.004 363.275 253.024 358.791 256.822C358.791 256.822 339 252.358 332.949 250.31ZM410.789 237.849C410.789 237.849 406.258 250.59 416.705 250.171C416.705 250.171 416.848 244.366 421.59 245.052L430.974 249.388C430.974 249.388 447.921 249.862 442.352 235.599C442.352 235.599 435.999 227.377 433.902 228.031C423.472 231.283 428.432 238.973 422.151 241.333C420.078 242.112 418.288 244.327 410.789 237.849Z" fill="white"/>
<ellipse cx="237.191" cy="208.67" rx="42.2769" ry="43.6111" fill="white"/>
<ellipse cx="174.603" cy="438.192" rx="9.21376" ry="10.0178" fill="white"/>
<ellipse cx="254.03" cy="443.128" rx="5.94901" ry="6.47491" fill="white"/>
<ellipse cx="9.21376" cy="10.0178" rx="9.21376" ry="10.0178" transform="matrix(-1 0 0 1 560.765 453.398)" fill="white"/>
<ellipse cx="5.94901" cy="6.47491" rx="5.94901" ry="6.47491" transform="matrix(-1 0 0 1 499.161 452.356)" fill="white"/>
<ellipse cx="3.82258" cy="2.51356" rx="3.82258" ry="2.51356" transform="matrix(0.975594 0.219583 -0.206849 0.978373 335.405 245.766)" fill="#FFB61D"/>
<ellipse cx="3.82258" cy="2.51356" rx="3.82258" ry="2.51356" transform="matrix(0.999443 -0.0333628 0.0313408 0.999509 417.833 244.663)" fill="#FFB61D"/>
<path fill-rule="evenodd" clip-rule="evenodd" d="M290.189 225.062C299.478 220.356 309.316 217.408 318.944 213.894C325.779 211.399 332.467 208.411 338.262 203.917C341.505 201.402 344.654 198.696 346.494 194.768C348.546 190.389 346.536 187.008 342.705 185.524C340.898 184.824 339.413 183.843 338.094 182.466C336.881 181.198 337.311 178.452 339.303 178.132C340.089 178.006 340.988 178.47 341.815 178.73C343.691 179.32 346.751 177.889 347.327 176.08C348.06 173.775 347.334 170.933 345.521 169.814C345.315 169.686 345.286 169.281 345.082 169.136C344.85 168.972 344.514 168.956 344.223 168.875C344.307 169.12 344.479 169.372 344.459 169.607C344.304 171.361 344.134 173.114 343.9 174.858C343.87 175.082 343.396 175.456 343.203 175.414C341.367 175.019 337.91 170.941 337.758 169.076C337.595 167.082 338.991 165.096 341.144 164.51C343.604 163.839 346.133 163.411 348.573 162.683C350.983 161.964 352.897 160.737 353.151 157.772C353.214 157.031 354.428 155.958 355.264 155.789C358.525 155.127 360.772 153.161 362.747 150.703C363.868 149.309 365.283 148.861 366.942 149.575C367.361 149.755 367.798 150.203 367.932 150.623C368.016 150.885 367.561 151.331 367.324 151.678C367.277 151.747 367.101 151.716 367.016 151.775C366.42 152.186 365.833 152.609 365.242 153.028C366.121 153.15 367.027 153.472 367.874 153.357C370.428 153.009 372.945 152.28 375.503 152.122C376.956 152.032 378.629 152.434 379.459 154.078C379.633 154.423 379.871 154.737 380.08 155.065C379.63 155.124 379.178 155.247 378.731 155.231C376.112 155.134 373.492 154.873 370.876 154.914C365.884 154.991 361.305 156.71 356.854 158.811C356.63 158.917 356.484 159.189 356.302 159.383C356.581 159.426 356.87 159.538 357.137 159.5C359.482 159.163 361.825 158.813 364.164 158.439C366.272 158.103 368.362 157.573 370.483 157.413C373.861 157.158 377.268 156.905 380.643 157.074C385.901 157.338 391.064 158.303 395.879 160.596C396.479 160.882 397.132 161.307 397.46 161.849C397.804 162.417 398.097 163.361 397.848 163.855C397.542 164.459 396.642 165.145 396.011 165.134C393.993 165.097 392.795 166.185 391.993 167.746C391.214 169.263 392.219 171.123 393.334 172.728C394.66 174.636 396.623 174.828 398.433 175.501C400.379 176.225 401.148 177.257 400.676 179.029C400.592 179.342 400.082 179.745 399.755 179.758C396.135 179.904 395.072 183.159 396.07 186.046C397.211 189.349 400.145 190.949 402.637 192.835C409.152 197.764 416.089 202.059 423.477 205.588C423.625 205.658 423.82 205.65 423.938 205.763C424.672 206.462 430.434 209.512 433.974 210.932C438.621 212.795 442.643 214.086 447.202 215.832C453.341 218.181 459.469 220.566 465.515 223.134C472.272 226.003 478.987 228.982 485.617 232.129C489.959 234.192 493.782 237.11 495.956 241.538C497.154 243.981 497.965 246.681 497.303 249.56C497.25 249.804 497.99 250.451 498.442 250.555C501.319 251.215 504.253 251.67 507.098 252.44C507.827 252.638 509.403 252.58 509.136 254.078C509.001 254.847 508.496 255.653 507.927 256.207C507.554 256.569 506.775 256.611 506.174 256.621C501.895 256.689 497.855 257.762 494.181 259.87C487.626 263.63 482.942 268.962 481.086 276.477C480.993 276.849 480.858 277.212 480.726 277.574C480.68 277.707 480.588 277.823 480.517 277.947C480.47 277.789 480.46 277.604 480.371 277.476C478.774 275.183 479.097 272.806 479.979 270.366C481.85 265.185 485.834 261.849 490.308 259.205C493.587 257.268 497.286 256.047 500.792 254.496C501.002 254.403 501.173 254.217 501.362 254.074C501.123 253.98 500.896 253.847 500.65 253.797C495.756 252.798 491.122 253.968 486.588 255.628C485.307 256.097 484.251 256.902 483.5 254.987C482.903 253.467 483.244 252.384 484.962 251.684C485.926 251.291 486.997 251.094 488.039 250.97C489.031 250.852 490.052 250.945 491.058 250.945C494.088 250.945 495.184 249.325 494.483 246.344C493.309 241.332 489.803 238.166 485.762 235.703C476.355 229.968 466.12 225.982 455.841 222.099C447.44 218.925 439.1 215.585 430.795 212.167C421.813 208.47 413.453 203.636 405.529 198.012C403.363 196.475 401.034 195.395 398.038 196.04C395.6 196.564 394.378 198.004 394.043 200.021C393.717 201.988 394.553 203.902 396.167 205.315C398.244 207.133 400.448 208.834 402.339 210.832C405.953 214.652 404.781 220.09 401.851 223.666C400.349 225.498 398.36 226.455 396.165 227.129C395.857 227.224 395.405 227.607 395.409 227.849C395.464 231.044 396.44 233.906 398.671 236.264C398.856 236.459 399.135 236.566 399.37 236.714C399.46 236.414 399.612 236.119 399.633 235.814C399.874 232.367 402.991 230.198 406.239 231.416C408.027 232.087 409.767 233.005 411.354 234.07C415.259 236.691 422.035 234.104 422.508 229.337C422.833 226.055 420.996 222.013 417.479 220.929C416.956 220.769 416.372 220.649 415.958 220.327C415.011 219.591 413.624 218.876 413.376 217.907C412.978 216.354 414.77 215.574 415.844 215.467C418.357 215.215 420.962 215.226 423.46 215.599C427.966 216.271 431.749 218.82 434.834 221.875C437.783 224.795 440.084 228.483 440.87 232.769C441.163 234.369 441.152 236.026 441.249 237.659C441.357 239.48 440.101 239.995 438.695 239.876C436.163 239.662 433.647 239.232 431.133 238.84C429.14 238.528 427.171 237.951 425.17 237.821C421.257 237.567 417.308 237.232 413.411 237.488C404.238 238.091 395.259 239.754 386.826 243.66C385.385 244.327 383.91 244.925 382.48 245.616C379.945 246.841 377.438 245.858 376.533 243.177C375.425 239.898 376.692 237.139 378.534 234.523C381.635 230.121 386.559 228.543 391.115 226.403C394.305 224.904 397.464 223.399 400.036 220.874C402.427 218.527 402.367 215.978 400.234 213.702C397.032 210.287 393.667 207.024 390.316 203.752C388.949 202.417 387.216 202.797 385.669 203.297C378.414 205.641 371.081 207.809 364.416 211.654C359.647 214.405 355.483 217.912 352.538 222.568C350.888 225.176 349.877 228.251 352.019 231.198C352.858 232.353 353.982 233.378 355.163 234.19C357.445 235.76 359.955 237.006 362.193 238.633C364.147 240.054 364.778 242.283 363.266 244.212C362.399 245.317 360.593 246.033 359.112 246.245C355.037 246.83 351.149 245.378 347.243 244.504C340.975 243.101 334.805 241.231 328.507 240.002C324.845 239.289 321.003 239.134 317.263 239.282C312.527 239.468 307.879 240.496 303.628 242.778C302.533 243.366 301.68 243.106 300.893 242.338C299.873 241.344 299.725 240.056 300.264 238.861C301.687 235.706 303.713 232.974 306.629 231.032C310.43 228.499 314.233 225.963 318.136 223.595C319.402 222.827 320.797 222.145 322.564 222.659C323.815 223.024 324.005 223.958 324.028 224.688C324.045 225.242 323.219 226.085 322.583 226.347C320.842 227.063 318.255 229.984 318.514 232.124C318.711 233.751 319.877 235.598 321.36 236.002C323.783 236.664 324.862 236.243 326.021 234.183C326.984 232.471 330.714 231.592 332.865 232.308C335.854 233.303 335.94 235.98 336.685 238.311C336.741 238.486 336.745 238.811 336.824 238.828C339.714 239.445 342.608 240.05 345.508 240.619C346.498 240.813 346.935 240.002 346.48 238.859C345.442 236.248 343.287 234.585 341.283 232.807C339.213 230.969 336.915 229.352 335.042 227.335C332.134 224.202 332.135 220.006 333.947 215.794C335.557 212.056 338.501 209.418 341.64 207.135C345.822 204.095 350.195 201.282 354.675 198.7C359.343 196.01 364.55 194.703 369.822 193.628C373.605 192.857 377.299 191.773 380.528 189.423C383.72 187.099 385.767 180.578 384.218 176.991C383.394 175.083 382.371 174.745 380.506 175.615C377.092 177.206 373.484 178.074 369.733 178.377C369.383 178.405 369.044 178.578 368.7 178.684C368.977 178.915 369.218 179.233 369.537 179.362C372.57 180.596 375.011 182.565 376.827 185.275C377.562 186.373 378.045 187.599 377.223 188.891C377.01 189.226 376.646 189.464 376.351 189.747C376.172 189.469 375.961 189.206 375.818 188.91C373.549 184.231 369.399 182.01 364.677 180.908C357.566 179.25 350.483 180.084 343.496 181.937C343.337 181.979 343.226 182.201 343.093 182.34C343.266 182.439 343.429 182.595 343.613 182.628C347.537 183.324 349.701 187.32 350.247 190.051C351.168 194.655 349.101 198.132 346.274 201.286C343.143 204.778 339.122 207.087 335.072 209.394C325.863 214.64 315.853 217.938 306.071 221.822C298.364 224.882 290.582 227.866 283.76 232.789C278.651 236.476 274.539 241.03 273.138 247.231C272.101 251.823 271.934 256.65 274.913 260.906C275.008 261.041 274.549 261.86 274.244 261.934C271.969 262.482 269.666 262.914 267.378 263.408C267.11 263.466 266.876 263.678 266.627 263.819C266.861 263.916 267.089 264.071 267.332 264.1C273.964 264.885 279.596 267.778 284.719 271.978C286.569 273.494 287.99 275.282 289.394 277.133C289.849 277.733 290.261 278.473 290.375 279.199C290.529 280.181 290.345 281.141 289.03 281.389C288.116 281.561 287.601 281.749 287.034 280.53C285.104 276.382 281.838 273.33 278.043 270.885C273.13 267.72 267.69 266.381 261.862 266.606C261.417 266.624 260.965 266.711 260.534 266.831C258.638 267.359 257.365 266.781 256.764 265.094C256.284 263.743 257.322 261.764 258.931 261.29C260.214 260.913 261.563 260.69 262.898 260.577C264.31 260.458 265.74 260.561 267.163 260.548C269.312 260.53 269.301 260.272 269.163 258.007C268.904 253.772 269.172 249.603 270.734 245.519C272.554 240.761 275.522 236.739 278.827 233.094C281.19 230.489 284.551 228.784 287.49 226.712C288.316 226.129 289.228 225.668 290.189 225.062M394.841 194.733C396.245 193.387 396.57 192.168 395.199 190.378C392.166 186.421 392.195 182.045 394.75 177.917C395.616 176.518 394.858 176.516 394.132 176.257C388.212 174.139 386.939 167.583 391.184 163.176C391.45 162.899 391.764 162.67 392.056 162.418C391.63 162.16 391.229 161.75 390.771 161.671C388.38 161.26 385.982 160.863 383.571 160.596C380.714 160.281 377.843 159.925 374.977 159.919C372.291 159.913 369.591 160.248 366.919 160.604C364.255 160.959 361.618 161.519 358.974 162.017C358.779 162.054 358.626 162.312 358.453 162.468C358.671 162.55 358.885 162.692 359.107 162.704C361.664 162.837 364.224 162.943 366.782 163.07C370.505 163.256 374.067 164.302 377.305 165.978C382.363 168.597 385.897 172.749 387.321 178.356C388.824 184.271 388.091 187.784 383.081 191.213C379.422 193.717 375.222 194.842 371.084 196.17C366.486 197.647 361.75 198.86 357.396 200.883C352.705 203.063 348.344 205.977 343.924 208.708C341.167 210.411 338.476 212.3 336.948 215.312C335.813 217.551 335.181 219.86 335.95 222.449C337.008 226.015 339.577 228.258 342.41 230.29C343.57 231.122 344.838 231.85 346.15 232.408C347.255 232.879 348.147 232.294 347.958 231.448C347.236 228.21 347.764 225.121 349.243 222.224C352.661 215.532 358.417 211.317 364.846 207.914C370.547 204.897 376.677 202.973 382.832 201.113C387.151 199.808 391.388 198.252 394.841 194.733M428.984 235.291C431.018 235.665 433.07 235.967 435.079 236.444C436.172 236.703 436.702 236.197 436.959 235.368C437.304 234.256 437.57 233.096 437.672 231.939C437.846 229.982 437.52 228.052 436.199 226.533C433.635 223.586 430.627 221.147 426.981 219.671C425.307 218.994 423.492 218.647 421.718 218.253C421.413 218.185 420.993 218.635 420.626 218.845C420.821 219.109 420.959 219.483 421.222 219.619C422.999 220.543 423.775 222.312 424.477 223.937C425.717 226.807 425.872 229.836 424.69 232.855C424.351 233.719 424.442 234.488 425.724 234.608C426.705 234.7 427.661 235.054 428.984 235.291M367.277 167.872C367.319 167.592 367.403 167.312 367.394 167.035C367.379 166.542 367.307 166.051 367.26 165.559C366.791 165.847 366.183 166.037 365.894 166.45C365.599 166.87 365.528 167.508 365.515 168.054C365.472 169.911 365.569 171.774 365.473 173.627C365.414 174.785 364.661 175.787 363.495 175.415C362.913 175.229 362.497 173.97 362.335 173.132C361.916 170.97 361.707 168.767 361.343 166.592C361.28 166.217 360.865 165.902 360.612 165.559C360.345 165.988 359.825 166.434 359.852 166.843C359.969 168.597 360.38 170.338 360.411 172.088C360.427 172.99 360.139 174.299 359.514 174.723C358.367 175.501 357.549 174.522 357.28 172.783C356.968 170.762 356.4 168.776 355.849 166.801C355.748 166.441 355.197 166.207 354.854 165.915C354.727 166.297 354.463 166.691 354.496 167.059C354.688 169.218 354.965 171.369 355.175 173.526C355.24 174.192 355.359 174.945 355.113 175.511C354.987 175.802 354.117 175.802 353.576 175.863C353.415 175.881 353.166 175.705 353.06 175.549C351.684 173.52 352.958 170.547 350.672 168.826C350.422 168.638 350.261 168.332 350.059 168.08C349.989 168.327 349.849 168.578 349.861 168.821C349.96 170.789 349.974 172.77 350.232 174.718C350.622 177.665 350.712 177.847 353.51 177.615C358.966 177.161 364.404 176.486 369.845 175.871C373.452 175.462 376.931 174.583 380.115 172.777C380.342 172.648 380.552 171.964 380.441 171.846C378.366 169.626 375.689 168.34 372.883 167.393C371.848 167.044 370.67 167.434 370.843 169.021C370.903 169.571 371.138 170.105 371.176 170.654C371.259 171.879 370.928 173.175 369.628 173.268C369.009 173.313 368.034 172.215 367.701 171.43C367.296 170.475 367.396 169.305 367.277 167.872M387.728 239.56C389.288 239.185 390.837 238.758 392.411 238.454C393.519 238.24 393.895 237.837 393.425 236.693C392.602 234.692 392.105 232.653 392.856 230.457C393.226 229.374 392.55 228.857 391.567 229.351C387.923 231.178 384.189 232.906 381.365 235.984C379.796 237.693 379.687 239.468 380.485 240.953C380.704 241.362 381.611 241.774 382.028 241.64C383.844 241.056 385.597 240.272 387.728 239.56M311.262 230.666C309.019 232.552 306.715 234.372 304.584 236.376C304.094 236.836 304.201 237.931 304.034 238.734C304.522 238.559 305.008 238.376 305.501 238.213C305.659 238.161 305.836 238.164 306.003 238.136C308.83 237.663 311.646 237.105 314.487 236.745C316.191 236.529 316.535 236.145 315.926 234.598C315.645 233.882 315.401 233.103 315.375 232.345C315.249 228.666 315.082 228.556 311.87 230.417C311.771 230.475 311.701 230.582 311.262 230.666M357.497 238.493C356.098 238.161 354.586 238.061 353.325 237.445C351.105 236.362 350.825 236.336 350.275 238.628C350.115 239.297 350.1 240.055 350.246 240.722C350.353 241.208 350.795 241.953 351.156 241.996C354.001 242.331 356.861 242.548 359.721 242.72C359.969 242.735 360.461 242.179 360.486 241.86C360.641 239.877 358.978 239.418 357.497 238.493M332.601 237.781C333.323 238.142 334.374 238.709 334.484 237.476C334.635 235.784 331.466 234.299 330.123 235.34C329.844 235.556 329.809 236.217 329.844 236.658C329.864 236.928 330.186 237.3 330.456 237.398C331.024 237.606 331.646 237.662 332.601 237.781M407.467 235.469C407.372 233.971 406.333 233.444 405.085 234.332C404.712 234.598 404.533 235.138 404.266 235.552C404.736 235.702 405.205 235.964 405.678 235.973C406.213 235.982 406.752 235.765 407.467 235.469Z" fill="#00160A"/>
<path fill-rule="evenodd" clip-rule="evenodd" d="M385.065 360.911C383.845 364.86 382.592 368.689 381.612 372.587C380.365 377.546 379.147 382.527 378.271 387.56C377.329 392.976 376.737 398.457 376.108 403.924C375.745 407.072 375.555 410.244 375.389 413.411C375.205 416.916 375.12 420.428 375.022 423.936C374.887 428.807 374.687 433.681 374.689 438.551C374.69 443.543 374.71 448.549 375.093 453.519C375.305 456.283 375.553 458.966 374.65 461.616C374.17 463.021 373.124 463.961 371.624 463.975C365.337 464.028 359.101 463.377 353.111 461.456C348.089 459.844 345.214 455.974 345.931 451.153C346.326 448.492 345.952 446.015 344.69 443.931C342.728 440.686 339.902 438.359 335.729 438.359C333.768 438.356 331.854 438.413 330.1 439.387C328.958 440.021 327.819 440.014 327.032 439.003C325.614 437.182 325.675 435.936 326.66 434.602C328.197 432.517 330.49 431.717 332.772 431.336C336.959 430.642 341.212 430.411 345.331 431.973C349.173 433.432 351.95 435.993 352.874 440.042C353.133 441.177 352.529 442.746 351.843 443.81C350.5 445.887 349.497 448.022 348.873 450.427C348.224 452.925 349.612 457.108 352.582 458.119C354.032 458.61 354.352 458.425 354.397 456.884C354.494 453.494 354.582 450.103 354.758 446.716C354.939 443.255 355.313 439.8 355.438 436.338C355.733 428.195 356.252 420.044 356.076 411.908C355.908 404.169 354.012 396.649 351.141 389.442C347.999 381.554 344.582 373.775 341.55 365.847C340.546 363.224 339.996 360.302 339.882 357.491C339.61 350.825 342.68 345.64 348.368 342.398C352.973 339.772 357.955 337.809 362.777 335.567C363.869 335.06 364.994 334.623 366.093 334.13C366.254 334.057 366.354 333.852 366.482 333.708C366.294 333.734 366.106 333.775 365.917 333.781C360.713 333.958 355.751 335.311 351.06 337.407C347.799 338.864 344.723 340.8 341.732 342.776C338.831 344.692 336.559 347.347 334.842 350.361C332.882 353.799 331.549 357.459 333.768 361.289C334.46 362.483 335.639 363.429 336.705 364.363C338.036 365.528 339.756 366.349 340.815 367.704C342.807 370.253 342.318 372.531 339.783 374.711C339.702 374.781 339.755 375.063 339.809 375.225C341.226 379.499 342.558 383.805 344.099 388.035C346.274 394.007 348.77 399.867 350.801 405.885C351.88 409.084 352.347 412.502 352.949 415.847C353.844 420.823 353.455 425.719 351.515 430.422C351.317 430.906 350.751 431.436 350.273 431.532C349.983 431.589 349.251 430.881 349.214 430.472C349.125 429.486 349.313 428.469 349.413 427.465C349.642 425.192 350.052 422.922 350.091 420.645C350.205 413.864 348.741 407.333 346.35 401.039C344.659 396.588 342.623 392.268 340.727 387.895C339.724 385.583 338.615 383.313 337.713 380.963C337.357 380.035 337.368 378.943 337.342 377.922C337.323 377.185 337.338 376.743 336.347 376.81C331.839 377.116 327.795 375.47 323.735 373.798C322.418 373.255 320.912 373.087 319.473 372.943C316.996 372.696 315.387 369.975 316.614 367.856C317.448 366.417 318.794 366.332 320.378 365.986C323.794 365.237 326.283 368.223 329.483 367.583C330.688 367.342 331.886 367.024 333.103 366.896C334.128 366.789 333.976 366.424 333.394 365.987C329.266 362.886 328.826 358.651 330.002 354.134C331.848 347.046 336.693 342.233 342.658 338.418C348.634 334.597 355.193 332.335 362.129 330.875C367.665 329.709 373.216 329.762 378.769 329.944C381.698 330.04 384.892 330.448 386.39 333.653C387.081 335.134 387.539 336.78 387.789 338.399C388.672 344.128 388.036 349.756 386.423 355.306C385.897 357.115 385.572 358.982 385.065 360.911M358.302 403.338C358.658 405.977 359.289 408.613 359.313 411.255C359.37 417.37 359.19 423.488 358.993 429.604C358.866 433.538 358.547 437.47 358.298 441.401C358.204 442.895 358.056 444.386 357.948 445.88C357.705 449.278 357.341 452.676 357.279 456.077C357.234 458.553 358.245 459.926 360.507 460.268C363.73 460.752 367.008 460.947 370.27 461.04C371.439 461.075 372.309 460.481 372.234 458.777C371.961 452.487 371.84 446.19 371.843 439.896C371.846 433.186 372.035 426.48 372.184 419.77C372.23 417.683 372.367 415.596 372.537 413.516C372.986 408.019 373.392 402.517 373.978 397.034C374.435 392.76 374.844 388.445 375.795 384.267C377.365 377.375 379.037 370.473 381.251 363.769C383.885 355.794 384.934 347.698 384.575 339.387C384.471 336.96 384.205 334.201 381.178 333.482C379.102 332.989 376.9 332.825 374.764 332.878C373.825 332.901 372.423 333.025 372.146 334.618C371.87 336.204 370.411 336.59 369.146 336.964C365.339 338.09 361.378 338.808 357.713 340.276C354.058 341.74 350.398 343.529 347.264 345.876C342.64 349.338 342.355 354.762 343.111 359.863C344.207 367.249 347.485 373.999 350.472 380.794C352.147 384.605 353.96 388.371 355.355 392.284C356.593 395.759 357.339 399.409 358.302 403.338M338.563 372.919C338.647 372.835 338.736 372.756 338.814 372.667C339.995 371.305 340.172 369.947 339.153 368.913C338.013 367.753 336.966 368.161 335.848 369.159C335.275 369.67 334.358 369.82 333.576 370.065C330.951 370.887 328.514 369.817 326.027 369.272C323.866 368.799 321.751 367.722 319.478 368.671C319.094 368.83 318.827 369.268 318.507 369.577C318.853 369.861 319.156 370.286 319.552 370.406C323.554 371.628 327.545 372.896 331.592 373.949C333.896 374.548 336.299 374.782 338.563 372.919M339.453 433.222C337.444 433.521 335.428 433.773 333.432 434.14C332.916 434.236 332.465 434.681 331.984 434.965C332.421 435.154 332.847 435.477 333.297 435.513C336.554 435.791 339.726 436.317 342.433 438.345C343.974 439.498 345.398 440.85 347.059 441.785C347.82 442.212 349.025 441.856 350.029 441.853C349.994 441.045 350.244 440.049 349.864 439.466C349.052 438.217 347.854 437.228 346.921 436.047C345.037 433.663 342.509 432.955 339.453 433.222Z" fill="#FFB61D"/>
<path fill-rule="evenodd" clip-rule="evenodd" d="M461.606 319.807C463.244 318.88 464.77 317.988 466.349 317.217C468.056 316.386 469.813 316.837 470.446 318.154C471.108 319.528 470.226 320.886 468.739 320.785C466.157 320.61 465.047 321.581 465.09 324.165C465.15 328.03 465.389 331.893 465.414 335.757C465.449 342.072 463.856 348.059 461.52 353.88C458.712 360.884 454.232 366.837 449.864 372.897C445.852 378.465 441.881 384.109 438.48 390.057C434.002 397.888 431.085 406.402 429.528 415.322C428.819 419.384 428.159 423.468 427.774 427.57C427.345 432.138 426.917 436.749 427.105 441.317C427.337 446.956 428.188 452.57 428.809 458.192C428.957 459.529 429.311 460.846 429.441 462.183C429.474 462.525 429.081 463.144 428.766 463.24C428.22 463.4 427.332 463.493 427.033 463.187C426.401 462.532 425.884 461.65 425.64 460.775C425.337 459.69 425.312 458.515 425.249 457.373C424.992 452.791 424.73 448.205 424.54 443.619C424.37 439.521 424.006 435.401 424.241 431.32C424.585 425.332 424.91 419.316 426.608 413.476C427.629 409.963 427.965 406.22 429.254 402.825C430.571 399.355 432.578 396.126 434.466 392.899C435.983 390.31 437.929 387.969 439.392 385.353C440.488 383.394 440.946 381.082 442.006 379.097C443.003 377.229 444.351 375.533 445.662 373.852C447.451 371.557 449.467 369.432 451.171 367.079C452.895 364.696 454.537 362.218 455.885 359.611C457.366 356.748 458.773 353.778 459.663 350.696C460.805 346.743 461.65 342.663 462.156 338.579C462.622 334.817 462.529 330.979 462.565 327.174C462.59 324.431 460.954 322.921 458.224 322.92C455.593 322.919 453.096 320.307 452.959 317.647C452.754 313.639 454.794 311.012 457.984 309.051C461.632 306.809 465.787 306.045 469.877 305.147C473.096 304.44 476.343 303.851 479.583 303.255C482.183 302.778 484.786 302.353 487.397 301.933C490.455 301.441 493.517 300.946 496.587 300.518C498.731 300.219 500.887 299.963 503.045 299.809C507.093 299.521 511.151 299.061 515.195 299.145C520.928 299.265 526.583 300.166 531.708 303.008C536.651 305.75 539.803 309.678 539.379 315.666C539.223 317.941 538.547 320.241 536.595 321.543C534.418 322.992 533.977 325.16 533.369 327.332C531.921 332.487 530.794 337.753 528.983 342.775C527.952 345.637 526.195 348.432 524.143 350.69C518.129 357.305 511.766 363.6 505.613 370.089C501.566 374.362 497.547 378.674 493.678 383.11C486.714 391.09 480.166 399.427 474.739 408.525C470.126 416.26 466.068 424.336 463.642 433.081C462.412 437.518 461.359 442.015 460.489 446.533C459.529 451.517 459.074 456.573 459.558 461.664C459.566 461.749 459.633 461.831 459.673 461.917C459.451 461.952 459.23 462.02 459.008 462.023C458.422 462.027 457.728 462.191 457.282 461.934C456.89 461.71 456.582 461.006 456.57 460.504C456.503 457.722 456.354 454.919 456.588 452.151C456.844 449.127 457.297 446.092 458.003 443.142C459.198 438.151 460.329 433.099 462.101 428.303C464.03 423.073 466.349 417.925 469.066 413.061C472.399 407.101 476.033 401.261 480.067 395.756C484.327 389.94 489.136 384.516 493.845 379.041C496.889 375.498 500.143 372.127 503.383 368.759C508.498 363.445 513.694 358.208 518.833 352.92C524.684 346.907 528.041 339.602 529.787 331.495C530.25 329.353 530.584 327.178 530.851 325.002C531.093 323.002 530.047 321.437 528.823 319.982C526.248 316.918 522.699 315.583 518.958 315.164C513.328 314.535 507.633 313.998 501.986 314.132C496.238 314.269 490.448 314.781 484.854 316.456C481.788 317.374 478.687 318.183 475.578 318.95C475.041 319.083 474.23 318.951 473.825 318.608C473.17 318.056 472.285 317.316 473.967 316.656C479.081 314.651 484.32 313.2 489.733 312.189C495.915 311.035 502.131 310.916 508.323 311.257C515.693 311.664 522.88 313.344 529.805 315.987C530.982 316.436 532.124 317.016 533.333 317.333C534.212 317.562 535.716 317.831 535.997 317.427C536.602 316.552 537.053 315.124 536.772 314.154C535.051 308.242 530.769 304.972 525.021 303.347C519.964 301.919 514.782 301.713 509.607 301.98C505.051 302.214 500.51 302.843 495.971 303.363C492.308 303.783 488.638 304.182 485.007 304.805C480.163 305.635 475.315 306.504 470.549 307.676C466.822 308.591 463.141 309.804 459.589 311.247C457.286 312.182 455.8 313.937 455.747 316.862C455.684 320.355 458.488 320.98 460.907 320.149C461.114 320.077 461.314 319.981 461.606 319.807Z" fill="#00160A"/>
<path fill-rule="evenodd" clip-rule="evenodd" d="M290.248 400.597C291.997 404.919 293.954 409.066 295.234 413.411C296.553 417.89 297.408 422.533 298.099 427.158C298.645 430.808 298.845 434.544 298.823 438.24C298.791 443.702 297.977 449.106 296.74 454.432C296.514 455.407 295.805 455.912 295.026 455.389C294.527 455.051 294.182 454.065 294.231 453.403C294.651 447.732 295.489 442.076 295.582 436.405C295.672 430.961 294.785 425.568 293.62 420.196C292.147 413.401 289.799 406.966 286.733 400.801C284.137 395.582 280.852 390.766 277.058 386.297C272.985 381.501 268.814 376.754 265.152 371.652C260.829 365.63 257.806 358.856 255.884 351.683C254.802 347.647 253.948 343.518 253.414 339.377C252.881 335.244 252.958 331.036 252.607 326.875C252.383 324.21 251.559 321.782 249.05 320.226C243.812 316.976 245.166 310.952 247.78 307.406C250.013 304.378 253.465 303.123 256.978 302.751C262.181 302.2 267.448 301.929 272.677 302.038C277.349 302.134 282.038 302.711 286.664 303.432C292.124 304.283 297.601 305.229 302.927 306.671C307.51 307.91 311.97 309.719 316.333 311.623C319.733 313.107 322.182 315.829 321.871 319.763C321.721 321.662 320.428 323.532 319.43 325.289C317.569 328.567 316.582 332.084 315.918 335.763C314.997 340.865 314.861 345.997 314.854 351.157C314.849 354.442 314.987 357.686 315.943 360.854C315.986 360.998 315.848 361.198 315.794 361.373C314.375 360.923 312.934 360.892 312.995 358.534C313.072 355.609 312.182 352.672 312.073 349.727C311.811 342.624 313.196 335.709 314.88 328.851C315.236 327.403 314.771 326.172 313.566 325.47C310.954 323.947 308.32 322.415 305.554 321.21C301.037 319.244 296.463 317.37 291.802 315.784C289.13 314.875 286.251 314.529 283.442 314.07C274.663 312.633 266.745 315.572 258.955 319.045C256.804 320.005 255.659 321.749 255.488 324.098C255.345 326.063 255.023 328.049 255.173 329.995C255.5 334.257 255.874 338.535 256.609 342.74C257.275 346.547 258.185 350.356 259.451 354.004C261.918 361.115 265.538 367.637 270.281 373.532C275.705 380.274 281.092 387.05 286.348 393.922C287.876 395.92 288.903 398.302 290.248 400.597M251.571 308.184C250.824 308.932 250.012 309.625 249.344 310.437C248.1 311.949 248.006 315.38 249.081 317.021C249.903 318.276 252.4 318.789 254.576 317.957C257.796 316.727 260.957 315.342 264.157 314.06C268.003 312.518 271.921 311.245 276.127 311.211C278.279 311.194 280.439 311.104 282.583 311.239C284.554 311.363 286.55 311.575 288.464 312.042C294.461 313.507 300.163 315.777 305.615 318.677C308.741 320.34 312.008 321.608 315.511 322.248C317.338 322.582 319.393 321.495 319.445 319.776C319.501 317.922 318.784 316.024 317.086 315.179C313.613 313.448 310.05 311.84 306.397 310.542C300.639 308.498 294.734 306.899 288.632 306.24C282.605 305.59 276.574 304.939 270.53 304.498C268.054 304.317 265.537 304.68 263.039 304.806C259.032 305.007 255.146 305.646 251.571 308.184Z" fill="#00160A"/>
<path fill-rule="evenodd" clip-rule="evenodd" d="M388.955 284.011C393.405 283.863 397.768 283.852 402.127 283.718C403.672 283.671 405.269 283.658 406.51 282.343C407.397 281.403 407.471 279.709 406.447 278.917C404.77 277.621 404.157 275.593 405.054 274.31C405.674 273.423 409.006 273.097 410.224 273.8C411.982 274.815 412.939 276.448 413.571 278.282C414.268 280.31 414.859 282.374 415.51 284.417C415.592 284.676 415.755 284.908 415.881 285.152C416.064 284.941 416.294 284.756 416.422 284.516C419.991 277.818 425.516 273.474 432.685 271.245C440.488 268.818 447.859 269.911 454.956 273.996C458.708 276.157 461.685 278.924 463.595 282.754C465.846 287.259 465.451 291.943 464.043 296.592C463.893 297.088 463.139 297.401 462.666 297.799C462.311 296.998 461.528 296.114 461.664 295.409C462.72 289.987 461.059 285.265 457.94 281.029C452.985 274.296 445.877 272.303 438.002 273.145C430.192 273.979 424.214 278.192 419.601 284.515C417.349 287.603 415.813 290.972 414.639 294.564C414.107 296.193 412.584 296.892 411.181 296.594C409.939 296.329 410.182 295.63 410.392 294.885C411.08 292.445 412.169 290.051 412.404 287.573C412.6 285.52 411.809 283.372 411.442 281.268C411.422 281.156 411.289 281.064 411.208 280.962C411.052 281.194 410.852 281.407 410.746 281.66C409.94 283.565 408.638 285.023 406.714 285.774C405.639 286.194 404.459 286.519 403.316 286.554C400 286.656 396.678 286.562 393.359 286.596C383.214 286.7 373.068 286.894 362.923 286.897C360.552 286.898 358.109 286.648 356.004 285.181C353.984 283.775 353.057 281.848 353.483 279.529C353.527 279.29 353.642 279.064 353.724 278.832C353.48 278.912 353.217 278.957 352.994 279.077C347.621 281.989 343.735 286.23 341.775 292.057C341.088 294.101 340.885 296.303 340.287 298.384C339.887 299.772 339.564 301.395 337.862 301.871C336.005 302.389 334.947 301.232 334.615 298.708C333.91 293.347 331.699 288.637 328.366 284.4C324.861 279.942 320.593 276.462 315.361 274.285C309.702 271.93 303.909 271.17 298.246 274.178C295.205 275.793 292.704 279.733 293.62 284.008C294.509 288.163 296.884 291.179 299.406 294.27C300.002 295 300.723 296.004 300.655 296.82C300.519 298.427 298.422 299.003 297.255 297.673C295.908 296.138 294.691 294.378 293.871 292.516C292.747 289.964 291.96 287.25 291.191 284.559C290.04 280.528 291.683 274.334 296.408 271.898C301.77 269.134 307.099 268.977 312.776 270.543C319.386 272.366 324.868 275.92 329.426 280.904C332.836 284.634 335.36 288.948 336.772 293.856C336.861 294.166 337.086 294.437 337.248 294.725C337.332 294.436 337.394 294.139 337.503 293.859C340.638 285.735 345.716 279.289 353.597 275.287C354.323 274.918 355.135 274.649 355.938 274.515C357.667 274.229 358.798 275.694 358.21 277.4C357.978 278.072 357.645 278.708 357.394 279.374C356.488 281.777 356.968 283.185 359.856 283.741C359.971 283.763 360.093 283.743 360.212 283.744C369.763 283.863 379.315 283.981 388.955 284.011Z" fill="#00160A"/>
<path fill-rule="evenodd" clip-rule="evenodd" d="M374.474 487.915C374.899 488.036 375.143 488.249 375.394 488.257C379.433 488.395 383.474 488.548 387.515 488.58C388.072 488.584 388.859 488.075 389.155 487.577C390.609 485.126 392.883 484.745 395.068 486.609C396.533 487.858 398.036 489.096 399.663 490.114C401.656 491.362 402.105 490.975 402.25 488.655C402.342 487.189 401.053 485.61 402.506 484.275C403.064 483.763 403.789 483.436 404.438 483.023C404.527 483.165 404.652 483.293 404.699 483.45C406.141 488.153 410.268 489.399 413.897 489.687C418.123 490.021 421.862 488.178 425.755 486.99C427.872 486.342 430.04 485.716 432.228 485.485C434.573 485.24 435.313 486.471 434.164 488.452C433.586 489.445 433.337 489.715 434.777 489.722C440.23 489.744 444.871 487.787 448.818 484.126C449.483 483.507 449.523 483.916 449.718 484.382C450.565 486.392 450.397 488.31 449.256 490.174C449.128 490.38 449.281 491.039 449.419 491.078C450.486 491.387 451.575 491.74 452.67 491.796C454.715 491.9 456.821 491.629 458.613 492.917C459.107 493.269 459.431 493.864 459.833 494.347C459.314 494.458 458.798 494.643 458.275 494.664C454.591 494.803 450.906 494.998 447.221 494.991C445.653 494.988 443.994 494.675 443.7 492.59C443.666 492.348 443.577 492.085 443.634 491.861C443.752 491.402 443.95 490.964 444.116 490.519C443.628 490.694 443.142 490.882 442.65 491.046C439.63 492.056 436.632 493.145 433.574 494.024C432.461 494.34 431.168 494.347 430.017 494.152C428.187 493.835 428.346 492.188 428.603 490.968C428.835 489.868 428.728 489.665 427.641 489.676C423.473 489.708 419.928 491.256 416.717 493.824C415.692 494.643 414.478 495.251 413.293 495.842C411.921 496.528 410.626 496.119 409.824 494.927C409.111 493.867 409.462 492.864 410.435 491.871C411.228 491.06 410.153 490.459 409.541 490.473C408.765 490.487 407.712 490.75 407.278 491.302C405.512 493.54 403.32 493.358 400.923 492.871C397.739 492.223 394.541 491.626 391.329 491.135C387.022 490.473 382.699 489.904 378.375 489.352C376.776 489.15 375.158 489.029 373.545 488.997C366.601 488.847 359.654 488.58 352.712 488.683C347.58 488.758 342.404 489.011 337.348 489.818C334.306 490.302 331.745 489.584 329.149 488.538C328.525 488.289 328.012 487.082 327.948 486.278C327.846 485.005 327.148 485.343 326.547 485.538C321.786 487.061 317.07 488.73 312.275 490.131C309.732 490.875 309.261 490.658 307.945 488.385C307.804 488.143 307.265 487.862 307.091 487.951C305.09 488.972 303.448 487.94 301.902 486.965C299.662 485.549 297.325 484.688 294.648 484.702C285.423 484.752 276.465 486.335 267.768 489.37C266.33 489.868 265.015 490.74 263.667 491.48C262.778 491.971 262.086 491.91 261.462 491.042C260.847 490.188 260.461 489.281 261.131 488.37C262.216 486.89 263.799 486.104 265.562 485.795C269.882 485.037 274.208 484.3 278.548 483.674C280.433 483.4 282.358 483.411 284.265 483.29C284.668 483.265 285.07 483.229 285.472 483.201C285.279 482.831 285.097 482.454 284.889 482.091C284.695 481.753 284.537 481.358 284.253 481.116C282.983 480.042 283.046 478.213 283.662 477.459C284.22 476.779 286.233 476.722 287.31 477.142C291.438 478.757 295.452 480.664 299.501 482.479C300.428 482.895 300.426 482.923 300.497 481.849C300.628 479.885 302.704 478.661 304.52 479.746C306.312 480.817 307.923 482.223 309.499 483.614C311.365 485.261 313.626 485.748 315.858 485.361C320.824 484.503 325.704 483.112 330.811 483.293C333.983 483.404 337.155 483.514 340.325 483.66C340.753 483.681 341.211 483.827 341.582 484.041C341.924 484.24 342.168 484.606 342.455 484.902C342.064 484.958 341.673 485.019 341.28 485.069C338.345 485.425 335.411 485.78 332.476 486.14C332.257 486.168 332.043 486.236 331.826 486.282C332.073 486.353 332.318 486.478 332.567 486.485C337.141 486.613 341.716 486.702 346.288 486.855C352.474 487.065 358.658 487.324 364.842 487.559C367.993 487.68 371.144 487.798 374.474 487.915Z" fill="#00160A"/>
<path fill-rule="evenodd" clip-rule="evenodd" d="M120.266 218.552C117.492 217.793 114.826 217.025 112.115 216.474C108.177 215.674 104.344 216.095 100.626 217.722C95.9377 219.773 92.5849 223.143 90.3034 227.678C89.9897 228.302 89.4733 229.006 88.8743 229.266C87.6189 229.809 86.1031 228.284 86.5259 226.906C86.8283 225.922 87.2988 224.94 87.8988 224.105C90.4435 220.558 93.9147 218.06 97.8376 216.362C100.445 215.234 103.32 214.674 106.116 214.039C110.759 212.984 115.103 214.391 119.561 215.559C122.237 216.259 125.316 216.217 128.059 215.696C133.315 214.698 138.381 214.387 143.442 216.491C150.419 219.393 157.494 222.067 164.412 225.102C166.628 226.075 168.792 227.591 170.439 229.361C175.879 235.21 182.8 237.902 190.378 239.245C195.934 240.231 201.59 240.694 207.107 241.842C211.564 242.771 215.953 244.175 220.239 245.737C224.399 247.253 228.36 249.307 232.462 250.995C235.929 252.422 237.168 255.133 237.168 258.606C237.167 260.336 237.076 262.085 236.806 263.791C236.262 267.233 233.121 268.954 229.483 268.05C222.705 266.366 215.922 264.7 209.116 263.133C204.995 262.184 201.884 263.66 199.549 268.354C195.392 276.709 188.522 282.26 181.062 287.297C178.525 289.01 176.046 290.878 173.313 292.209C170.868 293.398 168.16 294.384 165.481 294.682C160.465 295.241 155.475 294.724 150.897 292.236C150.247 291.883 149.515 291.589 149.009 291.081C148.129 290.198 147.828 288.889 148.824 288.113C149.932 287.25 151.38 287.418 152.628 288.275C154.055 289.255 155.395 290.457 156.959 291.126C162.763 293.612 169.107 293.017 174.078 288.7C177.142 286.04 180.399 283.689 184.092 281.962C187.834 280.212 191.102 277.873 192.977 274.046C193.94 272.081 194.781 270.05 195.562 268.005C197.032 264.157 201.069 260.381 205.679 260.533C210.1 260.679 214.317 261.699 218.593 262.502C223.249 263.377 227.858 264.516 232.534 265.238C233.109 265.326 234.399 263.651 234.626 262.631C235.715 257.731 233.157 254.284 229.71 252.273C223.985 248.934 217.627 247.283 211.274 245.716C206.675 244.582 202.006 243.709 197.342 242.865C195.043 242.448 192.683 242.152 190.353 242.163C184.639 242.19 179.706 240.301 175.361 236.671C170.142 232.311 164.892 227.988 158.586 225.226C151.429 222.092 144.1 219.404 136.486 217.661C134.475 217.201 132.181 217.601 130.083 217.978C126.849 218.558 123.671 219.44 120.266 218.552Z" fill="#00160A"/>
<path fill-rule="evenodd" clip-rule="evenodd" d="M176.739 413.857C174.369 413.857 172.176 413.852 169.984 413.858C168.103 413.863 166.31 413.817 164.492 412.936C163.118 412.271 161.531 412.88 160.19 413.841C157.708 415.62 157.117 418.387 156.529 421.037C155.999 423.423 155.695 425.939 155.812 428.373C156.161 435.655 158.206 442.428 162.892 448.174C164.516 450.163 166.381 451.96 168.161 453.817C168.409 454.077 168.806 454.19 169.134 454.372C169.1 454.009 169.119 453.632 169.021 453.287C167.944 449.501 170.271 446.022 173.752 446.232C175.759 446.353 177.535 447.865 178.327 449.718C178.804 450.832 178.347 451.501 177.577 451.835C177.286 451.963 176.519 451.134 176.041 450.668C175.684 450.32 175.525 449.69 175.126 449.487C174.688 449.27 173.981 449.217 173.566 449.43C173.187 449.626 172.415 449.95 173.255 450.86C174.175 451.856 173.355 454.091 172.006 455.058C171.701 455.275 171.386 455.478 171.075 455.688C171.479 455.855 171.895 456.001 172.285 456.197C174 457.069 175.805 457.812 177.371 458.897C178.019 459.346 178.52 460.573 178.453 461.391C178.178 464.782 177.461 468.144 177.28 471.538C177.044 475.974 174.631 480.037 175.295 484.616C175.874 488.612 176.33 492.632 176.716 496.652C176.96 499.199 176.998 501.768 177.067 504.33C177.075 504.643 176.699 504.97 176.501 505.29C176.263 505.034 175.891 504.81 175.81 504.511C175.479 503.277 175.103 502.028 174.987 500.765C174.674 497.374 174.54 493.962 174.237 490.572C173.814 485.844 173.291 481.122 172.833 476.398C172.677 474.79 172.59 473.178 172.472 471.566C172.234 468.347 172.032 465.12 171.742 461.904C171.634 460.705 171.291 460.004 169.698 459.591C167.924 459.129 166.067 457.713 164.964 456.193C162.364 452.607 160.018 448.808 157.892 444.915C155.703 440.909 154.583 436.53 153.914 431.972C153.146 426.745 153.866 421.763 155.825 417.016C157.274 413.505 160.395 410.019 165.128 409.899C169.259 409.795 173.233 410.553 177.242 411.31C179.794 411.792 182.39 412.033 184.957 412.443C187.671 412.876 190.378 413.355 193.079 413.868C194.616 414.16 195.237 415.304 195.212 416.731C195.172 419.054 195.034 421.378 194.871 423.697C194.396 430.423 193.378 437.06 190.212 443.101C188.181 446.975 185.529 450.455 181.698 452.814C181.312 453.052 180.813 453.102 180.366 453.24C180.571 452.753 180.668 452.17 181 451.792C181.86 450.818 182.789 449.893 183.75 449.014C187.93 445.193 190.041 440.255 191.307 434.893C192.448 430.066 192.857 425.152 192.748 420.193C192.731 419.457 192.744 418.719 192.783 417.984C192.89 416.001 191.176 415.913 190.037 415.697C186.651 415.052 183.212 414.684 179.793 414.215C178.836 414.083 177.876 413.975 176.739 413.857Z" fill="#00160A"/>
<path fill-rule="evenodd" clip-rule="evenodd" d="M564.49 437.379C566.187 437.714 567.698 438.101 569.231 438.372C570.782 438.646 571.333 439.656 571.23 441.044C570.92 445.224 570.508 449.401 570.184 453.581C569.793 458.697 568.274 463.468 565.909 467.993C563.829 471.975 560.891 475.173 557.139 477.628C556.933 477.763 556.655 477.788 556.41 477.863C556.467 477.617 556.452 477.311 556.595 477.14C557.441 476.126 558.245 475.056 559.216 474.173C562.854 470.861 565.344 466.812 566.567 462.102C567.439 458.747 567.958 455.275 568.356 451.824C568.694 448.874 568.594 445.879 568.772 442.908C568.868 441.289 567.99 440.464 566.617 440.254C562.25 439.585 557.879 438.92 553.49 438.486C550.239 438.165 546.953 438.229 543.684 438.08C542.845 438.041 541.963 437.977 541.184 437.692C538.221 436.621 535.895 437.436 534.459 440.207C532.915 443.189 532.378 446.394 532.069 449.728C531.596 454.887 532.424 459.804 534.284 464.546C536.425 469.993 539.63 474.728 544.392 478.282C544.605 478.439 544.876 478.517 545.121 478.635C545.061 478.346 545.018 478.058 544.94 477.777C544.321 475.468 544.702 473.526 546.551 471.793C547.984 470.455 549.762 470.473 551.096 470.961C552.441 471.452 553.504 472.967 554.411 474.234C554.639 474.55 553.785 475.635 553.429 476.368C553.084 476.087 552.519 475.856 552.433 475.511C552.11 474.148 551.299 473.423 549.979 473.739C549.521 473.849 548.859 474.945 549.001 475.315C549.3 476.091 550.452 476.699 549.606 477.642C548.87 478.464 547.86 479.044 546.956 479.709C546.796 479.826 546.565 479.848 546.366 479.912C546.569 479.997 546.775 480.072 546.974 480.164C548.962 481.079 551.043 481.844 552.896 482.979C553.689 483.466 554.443 484.736 554.443 485.647C554.443 487.91 554.091 490.187 553.714 492.428C553.109 496.011 551.971 499.551 551.79 503.144C551.58 507.31 552.153 511.519 552.401 515.706C552.494 517.318 552.661 518.926 552.746 520.541C552.885 523.156 552.946 525.778 553.131 528.393C553.195 529.283 552.85 529.713 552.071 529.628C551.79 529.596 551.391 528.984 551.359 528.607C551.071 525.33 550.915 522.043 550.602 518.77C550.189 514.397 549.659 510.035 549.201 505.666C549.044 504.179 548.948 502.685 548.841 501.191C548.599 497.854 548.4 494.509 548.116 491.172C547.949 489.19 547.678 487.216 547.394 485.248C547.344 484.921 547.017 484.42 546.757 484.377C543.09 483.783 541.245 480.837 539.175 478.336C535.828 474.301 533.466 469.634 531.901 464.656C530.756 461.013 530.102 457.246 529.892 453.357C529.7 449.799 529.977 446.409 531.066 443.068C533.271 436.294 538.662 433.054 545.943 434.501C549.866 435.28 553.86 435.711 557.818 436.315C559.988 436.65 562.146 437.023 564.49 437.379Z" fill="#00160A"/>
<path fill-rule="evenodd" clip-rule="evenodd" d="M276.432 536.24C273.587 536.24 270.92 536.208 268.254 536.247C260.896 536.347 253.538 536.475 246.18 536.596C239.296 536.713 232.411 536.838 225.527 536.952C218.051 537.076 210.574 537.179 203.098 537.311C197.398 537.414 191.7 537.567 186 537.66C177.517 537.795 169.032 537.884 160.549 538.026C156.212 538.101 151.865 538.517 147.543 538.318C140.252 537.98 132.932 537.393 126.36 533.725C123.368 532.053 120.451 530.252 118.704 527.04C117.127 524.144 117.303 521.468 121.025 520.234C129.779 517.331 138.536 514.435 147.297 511.553C149.078 510.97 150.902 510.699 152.616 511.72C153.088 512.001 153.364 512.613 153.73 513.072C153.285 513.325 152.87 513.681 152.392 513.812C146.429 515.449 140.46 517.06 134.488 518.665C129.421 520.024 124.361 521.419 119.269 522.682C118.255 522.931 118.429 523.03 118.923 523.681C123.844 530.174 130.607 533.661 138.326 535.507C143.271 536.692 148.291 537.368 153.406 537.336C156.734 537.311 160.063 537.653 163.392 537.638C168.261 537.617 173.13 537.432 178 537.307C182.454 537.194 186.908 537.066 191.363 536.955C196.291 536.831 201.22 536.72 206.149 536.596C210.544 536.482 214.939 536.354 219.335 536.244C224.204 536.119 229.073 536.012 233.942 535.881C237.864 535.778 241.784 535.632 245.706 535.532C251.108 535.397 256.511 535.297 261.914 535.173C266.546 535.063 271.178 534.934 275.811 534.817C280.561 534.696 285.312 534.579 290.063 534.461C294.932 534.34 299.802 534.226 304.671 534.106C309.54 533.988 314.409 533.785 319.279 533.778C323.437 533.771 327.598 533.935 331.753 534.123C335.036 534.273 338.313 534.579 341.591 534.824C341.806 534.838 342.015 534.938 342.227 534.995C342.014 535.055 341.803 535.119 341.589 535.173C341.533 535.187 341.471 535.173 341.411 535.173C335.772 535.294 330.133 535.45 324.492 535.522C312.631 535.667 300.769 535.746 288.907 535.895C284.807 535.948 280.709 536.123 276.432 536.24Z" fill="#00160A"/>
<path fill-rule="evenodd" clip-rule="evenodd" d="M431.33 357.635C431.293 351.007 432.503 344.846 435.599 339.128C436.761 336.983 438.077 334.97 440.208 333.625C442.754 332.017 446.322 332.219 447.843 335.049C448.606 336.467 448.192 338.685 447.896 340.473C447.258 344.319 446.318 348.115 445.566 351.944C444.81 355.79 444.077 359.643 443.455 363.513C443.281 364.599 443.125 366.356 443.687 366.739C444.564 367.338 446.102 367.259 447.287 367.05C449.345 366.688 451.346 366.001 453.377 365.474C453.574 365.424 453.814 365.543 454.035 365.583C453.935 365.763 453.831 365.941 453.737 366.124C453.536 366.515 453.318 366.899 453.147 367.303C452.82 368.078 452.663 368.528 451.417 368.446C450.005 368.353 448.557 369.511 447.063 369.761C445.514 370.02 443.848 370.082 442.312 369.8C440.061 369.385 438.843 369.808 438.798 371.499C438.744 373.539 439.973 374.332 441.812 373.263C444.128 371.919 446.342 371.832 448.579 373.304C448.827 373.468 449.137 373.892 449.081 374.106C448.653 375.72 447.265 376.125 445.487 375.972C443.735 375.821 441.928 376.284 440.152 376.535C440.104 376.542 440.085 377.5 440.157 377.515C441.986 377.901 441.949 379.141 441.648 380.559C440.958 383.816 440.568 387.182 438.148 389.784C438.015 389.928 437.974 390.158 437.89 390.347C437.837 390.132 437.73 389.914 437.74 389.702C437.845 387.32 437.912 384.934 438.106 382.558C438.248 380.81 438.567 379.078 438.796 377.337C438.895 376.587 438.498 376.395 437.865 375.947C436.098 374.699 435.697 369.938 437.379 368.601C440.4 366.199 440.393 362.697 441.249 359.525C442.305 355.611 443.106 351.627 443.954 347.659C444.435 345.413 445.014 343.154 445.142 340.877C445.296 338.142 443.319 336.327 441.027 337.088C439.777 337.503 438.474 338.603 437.797 339.75C435.864 343.027 434.97 346.706 434.536 350.48C434.269 352.809 433.843 355.147 433.87 357.477C433.908 360.82 434.291 364.158 434.532 367.498C434.644 369.051 434.787 370.601 434.881 372.154C435.018 374.416 435.126 376.68 435.241 378.943C435.363 381.325 435.626 383.71 435.56 386.087C435.48 389.017 435.409 392.002 434.785 394.842C434.375 396.702 432.99 398.348 432.038 400.087C431.992 400.17 431.902 400.228 431.833 400.298C431.784 400.141 431.681 399.979 431.694 399.827C431.797 398.57 431.964 397.318 432.034 396.06C432.289 391.416 432.806 386.763 432.677 382.128C432.523 376.624 431.734 371.14 431.36 365.638C431.183 363.041 431.33 360.422 431.33 357.635Z" fill="#FFB61D"/>
<path fill-rule="evenodd" clip-rule="evenodd" d="M421.299 546.359C418.344 545.768 415.563 545.192 412.79 544.576C407.201 543.338 401.617 542.079 396.03 540.827C392.07 539.944 388.109 539.062 384.15 538.173C383.978 538.133 383.824 538.016 383.661 537.938C383.823 537.899 383.994 537.806 384.145 537.831C386.42 538.197 388.704 538.518 390.961 538.977C395.27 539.852 399.558 540.83 403.863 541.73C407.959 542.584 412.053 543.456 416.168 544.206C419.878 544.886 423.624 545.366 427.339 546.017C431.084 546.672 434.803 547.48 438.551 548.12C441.778 548.675 445.033 549.066 448.27 549.568C451.94 550.137 455.596 550.792 459.27 551.326C462.194 551.752 465.142 552.009 468.069 552.421C471.082 552.841 474.073 553.407 477.085 553.816C479.408 554.133 481.751 554.268 484.077 554.552C487.68 554.994 491.269 555.524 494.872 555.954C497.372 556.253 499.886 556.477 502.397 556.669C507.405 557.05 512.413 557.395 517.424 557.74C521.059 557.993 524.693 558.341 528.332 558.43C536.519 558.63 544.71 558.793 552.897 558.772C557.303 558.761 561.753 558.651 566.102 558.025C572.294 557.135 578.529 556.146 584.522 554.424C590.422 552.727 595.967 549.92 600.637 545.726C601.512 544.943 602.209 543.933 603.155 543.267C605.41 541.677 604.567 537.425 602.372 536.002C599.538 534.167 596.308 533.679 593.179 532.861C584.34 530.559 575.485 528.339 566.625 526.13C560.227 524.536 553.811 523.013 547.402 521.455C546.004 521.113 544.607 520.775 543.227 520.366C542.853 520.256 542.305 519.921 542.284 519.647C542.252 519.285 542.562 518.762 542.882 518.52C544.454 517.328 546.211 517.346 548.014 517.897C556.959 520.626 565.9 523.376 574.852 526.073C583.234 528.599 591.653 531.004 600.014 533.597C601.821 534.159 603.766 534.988 605.082 536.273C607.465 538.596 607.117 542.129 604.499 544.683C601.103 548.003 597.027 550.351 592.777 552.414C587.534 554.965 582.022 556.712 576.306 557.701C571.672 558.505 566.984 559.177 562.29 559.466C554.995 559.917 547.676 560.149 540.364 560.184C535.071 560.209 529.772 559.825 524.48 559.501C520.294 559.249 516.115 558.882 511.943 558.437C507.142 557.925 502.362 557.238 497.564 556.687C493.982 556.278 490.383 556.032 486.809 555.595C481.524 554.944 476.257 554.154 470.975 553.489C467.635 553.065 464.271 552.827 460.931 552.389C456.96 551.87 453.008 551.194 449.041 550.635C445.391 550.123 441.718 549.757 438.078 549.184C434.204 548.579 430.358 547.796 426.495 547.117C424.829 546.825 423.15 546.612 421.299 546.359Z" fill="#00160A"/>
<path fill-rule="evenodd" clip-rule="evenodd" d="M289.863 210.668C293.714 210.668 297.39 210.579 301.06 210.688C306.715 210.856 312.301 211.572 317.647 213.542C318.513 213.861 319.28 214.499 320.028 215.074C320.701 215.591 320.793 216.303 320.311 217.026C319.779 217.827 319.173 217.933 318.275 217.448C314.197 215.242 309.825 214.034 305.184 213.874C301.145 213.735 297.105 213.639 293.067 213.512C289.62 213.403 286.151 213.48 282.733 213.099C279.528 212.742 276.388 211.835 273.201 211.277C270.859 210.868 268.59 209.89 266.083 210.61C265.165 210.874 265.322 210.937 265.853 211.374C268.111 213.227 270.646 214.653 273.481 215.253C278.628 216.343 283.84 217.12 288.998 218.161C293.175 219.005 297.29 220.169 300.732 222.818C301.525 223.428 302.189 224.709 302.203 225.691C302.217 226.707 301.269 227.604 299.932 227.454C299.774 227.436 299.546 227.429 299.476 227.33C296.541 223.137 292.083 221.619 287.408 220.671C284.033 219.986 280.559 219.798 277.169 219.177C272.844 218.385 268.622 217.322 265.143 214.287C263.228 212.615 261.96 210.723 261.27 208.279C260.854 206.806 261.303 205.815 262.316 205.001C263.23 204.265 264.076 204.622 265.11 205.216C268.956 207.427 273.036 209.129 277.507 209.588C281.561 210.004 285.625 210.312 289.863 210.668Z" fill="#FFB61D"/>
<path fill-rule="evenodd" clip-rule="evenodd" d="M248.371 454.232C244.852 450.521 242.818 446.231 241.839 441.335C241.183 438.052 241.016 434.825 241.9 431.61C242.862 428.107 245.054 424.771 249.756 425.201C254.017 425.591 258.238 426.419 262.473 427.079C263.292 427.207 264.098 427.437 264.904 427.641C267.46 428.288 267.789 428.643 267.837 431.149C267.993 439.439 265.496 446.697 259.464 452.574C259.053 452.973 258.705 453.439 258.329 453.876C258.563 453.108 258.564 452.101 259.069 451.614C262.187 448.611 264.182 444.978 265.437 440.894C266.548 437.279 266.787 433.594 266.033 429.897C265.712 428.326 264.043 428.548 262.987 428.412C258.225 427.796 253.436 427.388 248.654 426.932C245.848 426.664 243.979 428.006 243.312 430.845C241.331 439.268 243.297 446.619 249.432 452.777C249.807 453.154 250.377 453.336 250.856 453.609C250.947 453.133 251.114 452.656 251.115 452.176C251.117 448.668 250.08 445.477 248.106 442.584C246.926 440.855 247.285 438.389 249.111 437.368C250.772 436.44 252.566 435.614 254.404 435.163C257.336 434.44 260.694 438.61 259.552 441.702C258.877 443.527 257.468 445.082 256.373 446.747C256.261 446.917 256.046 447.021 255.878 447.156C255.836 446.935 255.688 446.665 255.768 446.508C256.147 445.772 256.473 444.961 257.026 444.37C258.864 442.406 258.757 439.048 256.712 437.315C255.155 435.999 251.698 436.337 250.416 437.931C248.823 439.909 249.109 443.047 251.035 444.427C251.289 444.608 251.661 444.623 251.978 444.715C251.932 444.448 251.777 444.135 251.859 443.915C252.07 443.353 252.261 442.641 252.699 442.353C253.067 442.107 254.075 442.175 254.26 442.456C254.574 442.936 254.666 443.758 254.485 444.32C254.2 445.192 253.608 445.967 253.15 446.786C252.673 447.636 252.73 448.056 253.861 448.397C256.509 449.198 256.886 449.87 256.502 452.041C256.475 452.197 256.591 452.375 256.64 452.542C256.48 452.499 256.261 452.51 256.173 452.407C256.037 452.247 256.043 451.959 255.899 451.82C255.274 451.212 254.616 450.639 253.97 450.052C253.827 450.728 253.686 451.407 253.538 452.083C253.527 452.133 253.444 452.161 253.418 452.211C253.019 452.983 252.624 453.759 252.228 454.535C252.999 454.819 253.798 455.047 254.535 455.399C256.26 456.232 256.966 458.836 256.433 461.323C255.856 464.012 255.259 466.734 255.096 469.466C254.87 473.266 255.005 477.091 255.055 480.901C255.077 482.513 255.284 484.124 255.384 485.736C255.396 485.924 255.262 486.124 255.196 486.319C255.112 486.117 255.019 485.921 254.947 485.715C254.619 484.782 254.122 483.868 254.009 482.911C253.77 480.901 253.725 478.866 253.619 476.842C253.375 472.199 253.271 467.542 252.853 462.917C252.635 460.504 252.79 457.815 250.317 456.143C249.61 455.666 249.074 454.937 248.371 454.232Z" fill="#FFB61D"/>
<path fill-rule="evenodd" clip-rule="evenodd" d="M494.774 451.611C497.719 453.205 498.405 456.201 496.766 459.346C496.357 460.129 495.503 460.691 494.824 461.32C494.707 461.431 494.429 461.367 494.227 461.384C494.259 461.182 494.223 460.922 494.337 460.787C494.721 460.338 495.151 459.933 495.574 459.517C496.869 458.239 496.944 454.785 495.542 453.493C493.91 451.992 491.239 451.505 489.286 453.412C487.889 454.781 487.348 457.35 489.286 459.004C489.521 459.204 489.607 459.574 489.827 459.805C489.962 459.947 490.218 459.976 490.421 460.057C490.453 459.855 490.46 459.645 490.517 459.449C490.698 458.834 490.787 458.133 491.157 457.656C491.282 457.492 492.391 457.738 492.601 458.079C492.879 458.531 492.893 459.314 492.708 459.848C492.459 460.563 491.822 461.135 491.516 461.84C491.143 462.697 491.25 463.387 492.409 463.654C493.081 463.807 493.846 464.177 494.248 464.697C494.643 465.202 494.628 466.024 494.796 466.71C494.301 466.408 493.672 466.209 493.334 465.782C492.537 464.779 492.398 465.348 492.164 466.123C491.975 466.75 491.662 467.337 491.427 467.948C491.118 468.763 489.827 469.788 492.192 469.742C494.141 469.706 495.354 472.794 494.817 475.263C494.241 477.892 493.782 480.561 493.473 483.236C493.199 485.598 493.014 488.003 493.135 490.373C493.259 492.906 493.814 495.418 494.116 497.944C494.17 498.406 493.903 498.904 493.782 499.385C493.551 499.061 493.192 498.766 493.106 498.403C492.811 497.154 492.505 495.887 492.395 494.61C492.196 492.355 492.164 490.085 492.011 487.826C491.673 482.934 491.367 478.035 490.883 473.157C490.805 472.403 489.905 471.67 489.272 471.037C487.117 468.888 484.816 466.828 483.649 463.935C482.543 461.192 481.359 458.432 480.712 455.564C480.054 452.654 480.214 449.637 481.33 446.741C483.183 441.931 486.125 440.999 490.89 441.699C493.995 442.158 497.072 442.792 500.162 443.34C501.546 443.585 502.933 443.791 504.309 444.076C504.512 444.119 504.715 444.471 504.811 444.72C506.109 448.192 505.412 451.633 504.651 455.08C503.495 460.296 500.529 464.444 496.997 468.276C496.926 468.351 496.897 468.468 496.851 468.568C496.78 468.439 496.723 468.304 496.638 468.19C495.998 467.344 496.25 466.632 497.043 466.116C501.279 463.373 502.755 459.129 503.385 454.447C503.698 452.124 503.95 449.79 504.085 447.449C504.199 445.417 503.477 444.933 501.446 444.731C497.723 444.368 494.017 443.809 490.3 443.343C489.166 443.201 488.027 443.016 486.893 443.005C484.841 442.984 483.19 444.592 482.454 446.869C481.067 451.174 481.49 455.475 482.949 459.737C484.129 463.192 486.423 465.789 488.981 468.233C489.109 468.354 489.233 468.471 489.358 468.589C489.414 468.436 489.496 468.283 489.521 468.123C489.767 466.682 490.058 465.245 490.197 463.793C490.229 463.448 489.791 462.996 489.471 462.697C487.885 461.217 486.975 459.321 486.726 457.261C486.164 452.647 490.674 450.156 494.774 451.611Z" fill="#FFB61D"/>
<path fill-rule="evenodd" clip-rule="evenodd" d="M329.972 387.21C331.246 392.433 332.514 397.551 333.583 402.71C334.133 405.364 334.348 408.091 334.679 410.789C335.171 414.795 335.634 418.804 336.103 422.813C336.131 423.047 336.097 423.287 336.108 423.523C336.224 426.139 336.409 428.753 336.434 431.371C336.445 432.609 336.148 433.847 335.994 435.085C335.861 436.156 334.989 436.615 334.195 436.501C333.428 436.395 332.82 435.84 332.856 434.666C332.984 430.524 333.089 426.366 332.857 422.233C332.592 417.503 332.111 412.771 331.438 408.081C330.82 403.775 330.03 399.47 328.933 395.264C327.912 391.348 326.384 387.565 325.085 383.721C324.992 383.446 324.95 383.154 324.885 382.87C325.164 382.899 325.45 382.898 325.72 382.963C327.95 383.5 329.787 384.441 329.972 387.21Z" fill="#00160A"/>
<path fill-rule="evenodd" clip-rule="evenodd" d="M555.923 469.238C555.084 469.647 554.337 469.967 553.59 470.287C553.878 469.476 554.067 468.612 554.476 467.868C555.329 466.317 556.357 464.858 557.207 463.303C558.306 461.293 557.751 459.237 557.054 457.269C556.389 455.387 553.37 454.1 551.182 454.8C548.419 455.683 545.801 456.679 543.61 458.91C542.245 460.297 543.031 461.251 543.415 462.14C544.201 463.954 545.367 465.605 546.424 467.295C546.644 467.651 547.046 467.896 547.366 468.192C547.519 467.722 547.707 467.26 547.814 466.779C547.857 466.584 547.739 466.345 547.661 466.139C547.263 465.072 547.224 463.994 548.312 463.396C548.945 463.047 550.094 462.752 550.51 463.076C551.239 463.645 551.865 464.659 552.036 465.577C552.303 467.014 551.78 468.288 550.382 469.156C549.884 469.462 549.735 470.294 549.34 470.821C548.799 471.543 548.177 472.76 547.597 472.753C546.74 472.746 545.478 472.055 545.108 471.301C543.397 467.811 541.761 464.26 540.505 460.592C540.185 459.653 541.032 457.839 541.907 457.056C544.898 454.388 548.622 452.986 552.516 452.303C555.254 451.823 558.861 455.22 559.576 458.465C560.515 462.752 558.669 466.078 555.923 469.238Z" fill="#E7EAEE"/>
<path fill-rule="evenodd" clip-rule="evenodd" d="M178.588 428.379C182.986 430.4 185.335 435.155 182.916 440.15C181.979 442.086 180.435 443.744 179.062 445.441C178.827 445.732 178.057 445.59 177.534 445.647C177.693 445.124 177.709 444.48 178.032 444.099C179.671 442.16 181.076 440.161 181.687 437.599C182.466 434.33 179.961 430.309 176.64 430.226C175.206 430.19 173.708 430.785 172.324 431.315C171.154 431.764 170.077 432.487 169.01 433.17C166.149 435.002 166.53 435.806 167.721 438.272C168.592 440.076 169.739 441.751 170.838 443.434C170.978 443.651 171.572 443.569 171.957 443.626C171.984 443.416 172.04 443.203 172.034 442.997C172.002 441.833 171.76 440.631 171.964 439.514C172.199 438.226 173.262 438.151 174.36 438.557C176.633 439.4 176.678 441.819 175.186 443.993C174.39 445.156 173.014 445.921 173.145 447.654C173.154 447.767 171.567 448.255 170.826 448.095C170.14 447.945 169.345 447.277 169.027 446.625C167.51 443.53 166.12 440.375 164.725 437.219C163.927 435.419 164.339 433.867 165.926 432.69C169.323 430.169 172.872 427.994 177.313 428.038C177.68 428.041 178.044 428.26 178.588 428.379Z" fill="#FFB61D"/>
<path fill-rule="evenodd" clip-rule="evenodd" d="M228.317 503.634C233.088 502.631 237.385 500.83 241.573 498.738C241.669 498.692 241.788 498.65 241.892 498.66C242.462 498.703 243.031 498.767 243.6 498.82C243.237 499.19 242.92 499.628 242.503 499.92C238.261 502.894 233.517 504.698 228.425 505.367C224.04 505.946 219.606 506.174 215.188 506.466C210.67 506.765 206.134 506.839 201.626 507.234C198.899 507.476 196.218 508.191 193.5 508.59C192.397 508.754 191.119 508.636 190.702 507.394C190.286 506.156 190.757 504.826 192.018 504.406C193.494 503.915 195.113 503.787 196.682 503.67C197.567 503.602 198.474 503.94 199.376 503.979C205.26 504.239 211.145 504.644 217.029 504.637C220.733 504.63 224.436 503.99 228.317 503.634Z" fill="#00160A"/>
<path fill-rule="evenodd" clip-rule="evenodd" d="M533.066 512.839C534.819 513.469 536.395 514.095 537.97 514.728C538.241 514.835 538.493 514.984 538.756 515.112C538.426 515.422 538.059 516.03 537.778 515.991C536.178 515.778 534.545 515.561 533.016 515.07C528.318 513.554 523.698 511.793 518.971 510.366C516.208 509.53 513.291 509.221 510.471 508.548C508.664 508.114 506.377 508.552 505.421 506.303C505.158 505.684 505.047 504.532 505.392 504.229C505.926 503.767 507.007 503.514 507.693 503.717C510.791 504.642 513.857 505.702 516.891 506.819C522.24 508.787 527.557 510.829 533.066 512.839Z" fill="#E7EAEE"/>
<path fill-rule="evenodd" clip-rule="evenodd" d="M332.266 464.678C332.266 463.02 332.245 461.536 332.271 460.056C332.303 458.146 334.285 456.766 335.883 457.708C336.456 458.046 337.019 459.32 336.819 459.907C334.826 465.72 335.639 471.715 335.452 477.646C335.441 478.012 335.33 478.553 335.081 478.703C334.577 479.001 333.951 479.137 333.36 479.208C333.279 479.218 333.018 478.475 332.992 478.066C332.843 475.75 332.744 473.426 332.62 471.107C332.508 469.022 332.384 466.941 332.266 464.678Z" fill="#00160A"/>
<path fill-rule="evenodd" clip-rule="evenodd" d="M370.164 539.089C370.895 539.048 371.538 539.183 372.181 539.311C371.479 539.291 370.777 539.278 370.164 539.089Z" fill="#00160A"/>
<path fill-rule="evenodd" clip-rule="evenodd" d="M371.789 358.829C370.277 360.86 368.591 361.947 365.954 361.368C361.9 360.478 360.639 355.179 362.924 352.231C365.712 348.635 370.379 348.964 373.386 351.29C375.786 353.146 377.795 355.282 378.853 358.081C379.856 360.737 379.254 363.417 378.021 365.934C377.197 367.613 376.288 369.055 377.331 371.234C377.918 372.459 377.111 374.431 376.684 375.999C376.591 376.338 375.327 376.671 374.794 376.478C374.356 376.32 373.896 375.332 373.975 374.79C374.352 372.203 373.684 371.554 371.122 371.973C366.537 372.724 362.679 371.54 359.97 367.499C359.722 367.13 359.168 366.966 358.757 366.707C358.595 367.173 358.238 367.678 358.32 368.097C358.441 368.719 358.873 369.28 359.172 369.867C360.311 372.101 360.61 374.348 358.929 375.44C357.887 376.117 355.368 375.629 354.739 374.415C352.769 370.615 351.92 366.689 354.019 362.638C354.78 361.169 358.382 359.919 360.097 360.863C361.266 361.507 362.351 362.316 363.43 363.111C364.981 364.253 366.406 365.591 368.043 366.584C369.935 367.731 372.509 366.864 373.577 365.006C373.857 364.519 374.181 363.987 374.624 363.674C377.003 361.998 377.505 360.644 376.176 358.105C374.808 355.491 373.164 353.083 370.017 352.228C367.717 351.603 365.274 352.444 364.321 354.38C363.544 355.961 364.075 357.951 365.49 358.754C367.078 359.656 368.573 359.094 369.676 357.303C370.025 356.736 370.957 355.846 371.067 355.921C372.025 356.571 372.716 357.441 371.789 358.829M362.008 367.012C362.334 367.338 362.652 367.674 362.988 367.989C364.425 369.332 365.895 370.587 368.098 369.909C368.237 369.867 368.424 369.983 368.588 370.025C368.492 369.85 368.438 369.613 368.292 369.512C367.386 368.89 366.402 368.369 365.551 367.682C363.856 366.315 362.29 364.783 360.558 363.468C359.023 362.301 356.948 362.522 356.004 363.793C355.783 364.09 355.741 364.519 355.617 364.888C355.992 364.884 356.368 364.871 356.742 364.879C357.813 364.9 358.962 364.7 359.928 365.03C360.68 365.286 361.205 366.208 362.008 367.012Z" fill="#FFB61D"/>
<path fill-rule="evenodd" clip-rule="evenodd" d="M369.069 395.292C371.28 394.123 372.408 394.632 372.496 397.194C372.733 404.016 372.843 410.844 372.84 417.67C372.839 419.241 372.118 420.802 371.845 422.388C371.628 423.646 371.586 424.934 371.472 426.209C371.456 426.386 371.464 426.565 371.47 426.743C371.588 430.367 371.724 433.992 371.807 437.618C371.819 438.159 371.747 438.842 371.429 439.215C371.033 439.678 370.34 439.888 369.775 440.208C369.628 439.728 369.374 439.251 369.356 438.763C369.3 437.287 369.368 435.8 369.329 434.32C369.23 430.517 369.239 426.703 368.951 422.913C368.35 415.019 367.151 407.225 364.358 399.757C363.955 398.679 363.433 397.619 363.228 396.503C363.111 395.865 363.358 395.004 363.756 394.485C364.015 394.147 365.039 393.97 365.368 394.208C365.896 394.59 366.292 395.334 366.462 395.998C367.124 398.579 367.691 401.186 368.265 403.789C368.876 406.562 369.454 409.342 370.047 412.119C370.093 412.337 370.138 412.555 370.184 412.773C370.257 412.593 370.384 412.417 370.395 412.233C370.661 407.471 370.465 402.759 369.113 398.132C368.868 397.291 369.13 396.302 369.069 395.292Z" fill="#FFB61D"/>
<path fill-rule="evenodd" clip-rule="evenodd" d="M357.333 387.17C357.35 384.525 358.577 383.259 360.965 383.257C365.231 383.254 369.498 383.192 373.761 383.295C375.034 383.325 376.443 383.561 377.518 384.177C378.521 384.753 378.748 388.045 377.903 388.743C376.751 389.695 375.39 390.088 373.708 389.932C370.361 389.621 366.975 389.697 363.605 389.696C363.174 389.696 362.686 390.13 362.321 390.467C360.842 391.836 358.49 391.297 357.707 389.326C357.464 388.713 357.451 388.01 357.333 387.17M373.159 387.17C373.736 386.503 373.678 386.204 372.749 386.124C369.368 385.832 365.981 385.611 362.593 385.413C362.189 385.39 361.627 385.559 361.391 385.846C361.13 386.164 361.107 386.719 361.101 387.173C361.1 387.287 361.568 387.523 361.806 387.505C362.764 387.435 363.718 387.186 364.671 387.192C366.406 387.203 368.138 387.38 369.874 387.429C370.908 387.459 371.945 387.378 373.159 387.17Z" fill="#FFB61D"/>
<path fill-rule="evenodd" clip-rule="evenodd" d="M364.096 462.771C364.215 462.169 364.407 461.749 364.439 461.319C364.56 459.675 365.705 458.636 367.115 459.316C367.69 459.59 368.044 461.031 367.942 461.874C367.729 463.642 368.208 464.446 370.008 464.56C370.683 464.599 371.379 464.656 372.014 464.862C372.365 464.976 372.745 465.375 372.858 465.727C372.938 465.976 372.681 466.513 372.425 466.659C370.731 467.616 366.259 466.798 365.007 465.225C364.519 464.613 364.389 463.717 364.096 462.771Z" fill="#FFB61D"/>
<path fill-rule="evenodd" clip-rule="evenodd" d="M511.57 201.083C509.376 201.966 506.894 202.647 504.215 203.161C495.15 204.902 483.872 204.957 475.226 204.819C472.441 204.774 469.941 204.716 467.885 204.707C465.869 204.698 464.325 204.697 463.436 204.92C459.239 205.934 456.426 207.156 454.545 208.373C451.248 210.502 451.088 212.372 451.088 212.372V212.372C451.12 213.057 450.59 213.64 449.903 213.673C449.22 213.706 448.637 213.177 448.605 212.491C448.605 212.491 448.217 209.403 452.876 205.959C454.879 204.478 457.916 202.914 462.504 201.513C463.568 201.199 465.428 201.011 467.864 200.97C469.948 200.935 472.487 200.996 475.308 201.079C483.758 201.328 494.798 201.853 503.675 200.255C510.141 199.091 515.454 196.94 517.3 192.727C517.624 191.992 518.463 191.638 519.213 191.92C519.964 192.202 520.366 193.021 520.124 193.786C520.124 193.786 518.253 200.322 511.887 205.535C510.166 206.943 508.121 208.265 505.684 209.299C503.643 210.165 501.324 210.812 498.721 211.202C489.602 212.407 482.801 212.776 478.462 214.785C475.991 215.931 474.415 217.65 473.807 220.564C473.679 221.267 473.003 221.733 472.299 221.602C471.595 221.472 471.129 220.795 471.26 220.092C471.893 216.158 473.899 213.755 477.143 212.082C481.585 209.791 488.666 209.047 498.148 207.419C500.413 207.07 502.416 206.467 504.205 205.741C506.317 204.884 508.128 203.848 509.657 202.695C510.351 202.173 510.987 201.631 511.57 201.083Z" fill="#FFB61D"/>
<path fill-rule="evenodd" clip-rule="evenodd" d="M206.141 228.49C206.141 228.49 199.311 221.856 197.272 211.028C196.822 208.64 196.618 206.051 196.728 203.264C196.866 199.746 197.496 195.91 199.03 191.801C201.484 185.108 205.687 179.524 210.992 175.435C214.639 172.624 218.801 170.522 223.228 169.21C233.733 166.098 245.753 167.473 256.264 174.625C256.236 174.605 261.448 178.36 265.382 185.93C267.329 189.669 268.889 194.352 269.451 199.902C269.558 200.728 270.316 201.314 271.149 201.21C271.982 201.106 272.573 200.352 272.466 199.526C271.573 193.646 269.586 188.786 267.4 184.86C262.972 176.901 257.528 172.862 257.528 172.862C257.518 172.856 257.507 172.849 257.496 172.842C246.404 165.261 233.71 163.837 222.59 167.068C217.886 168.435 213.47 170.645 209.552 173.563C203.798 177.85 199.128 183.683 196.325 190.786C194.608 195.216 193.774 199.358 193.683 203.169C193.61 206.208 193.996 209.03 194.641 211.599C195.385 214.562 196.49 217.185 197.708 219.448C201.133 225.81 205.434 229.281 205.434 229.281C205.654 229.474 205.991 229.455 206.186 229.237C206.381 229.019 206.361 228.684 206.141 228.49Z" fill="#00160A"/>
</svg>
