<svg width="516" height="516" viewBox="0 0 516 516" fill="none" xmlns="http://www.w3.org/2000/svg">
<g clip-path="url(#clip0_62_77)">
<rect width="516" height="516" fill="#1E1E1E"/>
<path d="M164.75 273.25C164.75 275 164.125 276.833 162.875 278.75C161.625 280.667 160.25 282.083 158.75 283C158.333 283.25 157.625 283.5 156.625 283.75C155.625 284 154.542 284.25 153.375 284.5C152.292 284.667 151.208 284.875 150.125 285.125C149.125 285.292 148.333 285.417 147.75 285.5L150.75 304C151.667 309.75 152.333 315.542 152.75 321.375C153.25 327.125 154.333 332.833 156 338.5C156.167 339 156.333 339.458 156.5 339.875C156.667 340.292 156.75 340.833 156.75 341.5C156.75 342.583 156.417 343.417 155.75 344C155.167 344.583 154.417 345 153.5 345.25C152.667 345.583 151.75 345.792 150.75 345.875C149.75 345.958 148.833 346 148 346H146.25C143.667 346 141.667 345.792 140.25 345.375C138.917 344.958 137.875 344.25 137.125 343.25C136.375 342.25 135.875 341 135.625 339.5C135.375 337.917 135.083 336 134.75 333.75C132.75 318.5 130.5 303.25 128 288C122.833 288.667 117.625 289.292 112.375 289.875C107.208 290.458 102 291 96.75 291.5L92.75 316C92.5833 317.5 92.3333 319.542 92 322.125C91.75 324.708 91.4167 327.375 91 330.125C90.6667 332.792 90.25 335.292 89.75 337.625C89.3333 339.958 88.8333 341.667 88.25 342.75C87.75 343.75 87.2917 344.458 86.875 344.875C86.4583 345.292 85.6667 345.5 84.5 345.5C83 345.5 81.5 345.208 80 344.625C78.5833 344.125 77.2917 343.375 76.125 342.375C75.0417 341.458 74.1667 340.333 73.5 339C72.8333 337.667 72.5 336.167 72.5 334.5C72.5 332.833 72.6667 331.167 73 329.5C73.4167 327.833 73.75 326.167 74 324.5C74.9167 319 75.75 313.542 76.5 308.125C77.25 302.625 78.0833 297.167 79 291.75C78.4167 291.667 77.75 291.542 77 291.375C76.25 291.125 75.5 290.833 74.75 290.5C74.0833 290.167 73.5 289.75 73 289.25C72.5 288.75 72.25 288.167 72.25 287.5C72.25 286.667 72.5417 285.917 73.125 285.25C73.7917 284.5 74.5417 283.833 75.375 283.25C76.2917 282.583 77.2083 282.042 78.125 281.625C79.0417 281.125 79.8333 280.75 80.5 280.5C82.25 268.833 83.9167 257.208 85.5 245.625C87.0833 234.042 88.5 222.333 89.75 210.5C90.0833 207.333 90.375 204.125 90.625 200.875C90.875 197.625 91.125 194.375 91.375 191.125C91.7083 187.875 92.0833 184.667 92.5 181.5C93 178.333 93.6667 175.167 94.5 172C95.25 169 96.5 166.583 98.25 164.75C100 162.917 102.583 162 106 162C107 162 107.958 162.083 108.875 162.25C109.875 162.417 110.75 162.75 111.5 163.25C113.667 164.333 115.917 167.292 118.25 172.125C120.583 176.958 122.917 182.833 125.25 189.75C127.583 196.583 129.792 204 131.875 212C134.042 220 136 227.75 137.75 235.25C139.5 242.75 141 249.542 142.25 255.625C143.5 261.625 144.417 266.083 145 269C146.75 268.75 148.5 268.542 150.25 268.375C152 268.125 153.75 268 155.5 268C156.333 268 157.292 268.042 158.375 268.125C159.458 268.208 160.458 268.458 161.375 268.875C162.375 269.208 163.167 269.75 163.75 270.5C164.417 271.167 164.75 272.083 164.75 273.25ZM125.5 272.25C123.333 260.417 120.958 248.708 118.375 237.125C115.875 225.458 112.917 213.833 109.5 202.25C108 214.833 106.375 227.333 104.625 239.75C102.875 252.167 101 264.583 99 277C103.5 276.333 107.917 275.625 112.25 274.875C116.667 274.042 121.083 273.167 125.5 272.25ZM264.875 252.25C264.875 254.917 264.375 257 263.375 258.5C262.458 259.917 261.208 261 259.625 261.75C258.042 262.5 256.25 262.958 254.25 263.125C252.333 263.292 250.375 263.417 248.375 263.5C252.875 268.167 256.458 273.542 259.125 279.625C261.792 285.708 263.125 292 263.125 298.5C263.125 304.917 262.042 311.208 259.875 317.375C257.708 323.458 254.625 328.875 250.625 333.625C246.625 338.375 241.833 342.208 236.25 345.125C230.667 348.042 224.458 349.5 217.625 349.5C212.208 349.5 207.333 348.458 203 346.375C198.667 344.292 194.792 341.458 191.375 337.875C187.958 334.208 184.958 330 182.375 325.25C179.792 320.417 177.583 315.292 175.75 309.875C173.917 304.375 172.375 298.708 171.125 292.875C169.958 287.042 169 281.333 168.25 275.75C167.583 270.167 167.083 264.875 166.75 259.875C166.5 254.792 166.375 250.25 166.375 246.25C166.375 241.583 166.583 236.583 167 231.25C167.5 225.917 168.292 220.542 169.375 215.125C170.458 209.708 171.917 204.417 173.75 199.25C175.583 194.083 177.917 189.333 180.75 185C183.583 180.583 186.917 176.75 190.75 173.5C194.667 170.167 199.208 167.667 204.375 166C206.292 165.333 208.208 164.833 210.125 164.5C212.042 164.167 213.958 164 215.875 164C224.208 164 231.125 166.25 236.625 170.75C242.208 175.25 246.375 181.333 249.125 189C249.625 190.167 250.042 191.375 250.375 192.625C250.708 193.792 250.875 195 250.875 196.25C250.875 197.75 250.333 198.708 249.25 199.125C248.167 199.542 247.042 199.75 245.875 199.75C242.875 199.75 240.458 199.208 238.625 198.125C236.792 197.042 235.25 195.708 234 194.125C232.75 192.542 231.625 190.792 230.625 188.875C229.708 186.958 228.667 185.208 227.5 183.625C226.333 182.042 224.875 180.708 223.125 179.625C221.375 178.542 219.042 178 216.125 178C211.958 178 208.292 179.167 205.125 181.5C201.958 183.833 199.208 186.917 196.875 190.75C194.542 194.5 192.583 198.792 191 203.625C189.417 208.375 188.167 213.167 187.25 218C186.333 222.75 185.667 227.333 185.25 231.75C184.833 236.167 184.625 239.917 184.625 243C184.625 246.25 184.833 250.75 185.25 256.5C185.667 262.25 186.333 268.5 187.25 275.25C188.25 282 189.542 288.875 191.125 295.875C192.792 302.792 194.833 309.083 197.25 314.75C199.75 320.417 202.667 325.042 206 328.625C209.417 332.208 213.375 334 217.875 334C221.792 334 225.333 332.875 228.5 330.625C231.667 328.292 234.333 325.417 236.5 322C238.75 318.5 240.458 314.792 241.625 310.875C242.792 306.875 243.375 303.167 243.375 299.75C243.375 296.5 242.917 293.292 242 290.125C241.083 286.875 239.792 283.833 238.125 281C236.458 278.083 234.458 275.417 232.125 273C229.792 270.5 227.208 268.417 224.375 266.75C223.375 266.083 222.25 265.5 221 265C219.833 264.417 218.625 263.917 217.375 263.5C216.708 263.417 215.417 263.333 213.5 263.25C211.583 263.083 209.625 262.875 207.625 262.625C205.625 262.375 203.833 262 202.25 261.5C200.667 260.917 199.875 260.083 199.875 259C199.875 257.5 200.125 255.958 200.625 254.375C201.125 252.792 201.833 251.375 202.75 250.125C203.75 248.875 204.875 247.833 206.125 247C207.458 246.167 208.958 245.75 210.625 245.75C213.042 245.75 215.625 246.125 218.375 246.875C221.208 247.542 223.708 248.333 225.875 249.25C230.042 249 234.167 248.75 238.25 248.5C242.333 248.167 246.375 247.75 250.375 247.25C251.792 247.083 253.167 246.875 254.5 246.625C255.917 246.375 257.375 246.25 258.875 246.25C260.875 246.25 262.375 246.708 263.375 247.625C264.375 248.542 264.875 250.083 264.875 252.25ZM349.875 172C349.875 174.5 349.208 176.458 347.875 177.875C346.542 179.292 344.875 180.333 342.875 181C340.875 181.667 338.75 182.083 336.5 182.25C334.25 182.417 332.208 182.5 330.375 182.5C326.708 182.5 323.042 182.458 319.375 182.375C315.708 182.292 312.042 182.25 308.375 182.25C306.625 182.25 304.875 182.25 303.125 182.25C301.375 182.25 299.625 182.333 297.875 182.5C297.208 183.917 296.792 185.375 296.625 186.875C296.458 188.292 296.375 189.75 296.375 191.25C296.375 199.083 296.667 206.833 297.25 214.5C297.833 222.167 298.458 229.917 299.125 237.75C304.125 237.333 309.125 236.833 314.125 236.25C319.125 235.667 324.208 235 329.375 234.25C330.042 234.25 330.667 234.208 331.25 234.125C331.833 234.042 332.458 234 333.125 234C336.458 234 338.125 235.833 338.125 239.5C338.125 240.5 338 241.5 337.75 242.5C337.583 243.5 337.292 244.5 336.875 245.5C336.292 247.167 335.333 248.417 334 249.25C332.667 250 331.167 250.542 329.5 250.875C327.833 251.125 326.083 251.25 324.25 251.25C322.5 251.167 320.958 251.167 319.625 251.25L300.125 252C300.625 259.917 301.167 267.75 301.75 275.5C302.333 283.25 302.958 291.083 303.625 299C304.292 305 304.833 311.042 305.25 317.125C305.75 323.208 306.458 329.25 307.375 335.25V337.25C307.375 339.167 306.833 340.458 305.75 341.125C304.667 341.708 303.292 342 301.625 342C298.542 342 295.625 341.5 292.875 340.5C291.042 339.833 289.667 339.042 288.75 338.125C287.833 337.125 287.167 336.042 286.75 334.875C286.417 333.625 286.208 332.292 286.125 330.875C286.042 329.458 285.958 327.917 285.875 326.25C285.125 313.667 284.292 301.167 283.375 288.75C282.458 276.25 281.625 263.667 280.875 251C280.375 241.667 279.833 232.417 279.25 223.25C278.667 214.083 278.375 204.833 278.375 195.5C278.375 190.583 278.667 186.417 279.25 183C279.917 179.5 281.125 176.667 282.875 174.5C284.625 172.333 287.125 170.75 290.375 169.75C293.625 168.75 297.875 168.25 303.125 168.25C308.542 168.25 313.917 168.292 319.25 168.375C324.583 168.458 329.958 168.5 335.375 168.5C337.292 168.5 339.125 168.458 340.875 168.375C342.625 168.208 344.375 168.333 346.125 168.75C347.125 168.917 348 169.208 348.75 169.625C349.5 169.958 349.875 170.75 349.875 172ZM443.75 314.75C443.75 316.167 443.167 317.542 442 318.875C440.917 320.208 439.583 321.5 438 322.75C436.417 324 434.792 325.167 433.125 326.25C431.458 327.25 430.083 328.083 429 328.75C426.167 330.583 423.333 332.292 420.5 333.875C417.75 335.458 414.875 336.833 411.875 338C408.958 339.167 405.917 340.083 402.75 340.75C399.667 341.417 396.417 341.75 393 341.75L391 342C388.25 342 385.5 341.708 382.75 341.125C380.083 340.458 377.583 339.5 375.25 338.25C372.917 336.917 370.833 335.25 369 333.25C367.167 331.25 365.75 328.833 364.75 326C364 323.75 363.417 321.083 363 318C362.583 314.917 362.25 311.708 362 308.375C361.833 305.042 361.667 301.792 361.5 298.625C361.417 295.375 361.333 292.5 361.25 290C360 264.5 359 239 358.25 213.5C358.083 210.583 357.958 207.667 357.875 204.75C357.792 201.833 357.75 198.917 357.75 196C357.75 191 358.042 186.75 358.625 183.25C359.208 179.75 360.375 176.875 362.125 174.625C363.875 172.375 366.375 170.75 369.625 169.75C372.958 168.75 377.333 168.25 382.75 168.25C388.167 168.25 393.583 168.292 399 168.375C404.5 168.458 410 168.5 415.5 168.5C417.167 168.5 418.833 168.458 420.5 168.375C422.167 168.208 423.833 168.333 425.5 168.75C426.5 168.917 427.375 169.208 428.125 169.625C428.875 169.958 429.25 170.75 429.25 172C429.25 175 428.25 177.25 426.25 178.75C424.25 180.167 421.875 181.125 419.125 181.625C416.375 182.125 413.5 182.375 410.5 182.375C407.583 182.292 405.167 182.25 403.25 182.25H387C385.333 182.25 383.667 182.25 382 182.25C380.333 182.25 378.667 182.333 377 182.5C376.5 183.75 376.167 185.042 376 186.375C375.833 187.708 375.75 189.083 375.75 190.5C375.75 199.583 375.958 208.542 376.375 217.375C376.875 226.208 377.333 235.167 377.75 244.25C382.917 243.833 388.042 243.333 393.125 242.75C398.208 242.167 403.333 241.5 408.5 240.75C409.25 240.75 409.917 240.708 410.5 240.625C411.167 240.542 411.833 240.5 412.5 240.5C414.25 240.5 415.458 240.958 416.125 241.875C416.875 242.792 417.25 244.083 417.25 245.75C417.25 246.917 417.167 248 417 249C416.917 250 416.667 251 416.25 252C415.667 253.667 414.708 254.875 413.375 255.625C412.042 256.375 410.542 256.917 408.875 257.25C407.208 257.5 405.458 257.625 403.625 257.625C401.875 257.625 400.333 257.667 399 257.75C395.5 257.917 392.042 258.042 388.625 258.125C385.292 258.208 381.917 258.333 378.5 258.5C378.583 260.25 378.708 262.875 378.875 266.375C379.042 269.875 379.208 273.833 379.375 278.25C379.625 282.583 379.875 287.083 380.125 291.75C380.458 296.417 380.792 300.833 381.125 305C381.458 309.083 381.833 312.667 382.25 315.75C382.667 318.833 383.083 320.917 383.5 322C384.417 323.75 385.458 324.917 386.625 325.5C387.792 326 389.333 326.25 391.25 326.25C394.333 326.25 397.583 325.667 401 324.5C404.417 323.25 407.75 321.708 411 319.875C414.25 317.958 417.333 315.875 420.25 313.625C423.25 311.375 425.833 309.167 428 307C428.917 306.25 429.833 305.5 430.75 304.75C431.667 303.917 432.75 303.5 434 303.5C435.25 303.5 436.458 303.875 437.625 304.625C438.792 305.375 439.833 306.333 440.75 307.5C441.667 308.583 442.375 309.792 442.875 311.125C443.458 312.458 443.75 313.667 443.75 314.75Z" fill="white"/>
<path d="M0 434.667C0 434.667 243.5 347.667 516.001 434.667" stroke="#1BE1FF" stroke-dasharray="2 2"/>
</g>
<defs>
<clipPath id="clip0_62_77">
<rect width="516" height="516" fill="white"/>
</clipPath>
</defs>
</svg>
