<svg width="101" height="67" viewBox="0 0 101 67" fill="none" xmlns="http://www.w3.org/2000/svg">
<path d="M50.5001 55.8333C62.8958 55.8333 72.9446 45.8343 72.9446 33.5C72.9446 21.1656 62.8958 11.1666 50.5001 11.1666C38.1044 11.1666 28.0557 21.1656 28.0557 33.5C28.0557 45.8343 38.1044 55.8333 50.5001 55.8333Z" fill="#FF4500"/>
<path d="M65.4633 33.5C65.4633 31.6976 63.9932 30.2349 62.1819 30.2349C61.2894 30.2349 60.5019 30.5744 59.9243 31.1491C57.693 29.5557 54.5954 28.5109 51.1828 28.3803L52.6791 21.406L57.5355 22.4247C57.588 23.6524 58.6118 24.645 59.8718 24.645C61.1581 24.645 62.2082 23.6002 62.2082 22.3202C62.2082 21.0403 61.1581 19.9955 59.8718 19.9955C58.9531 19.9955 58.1655 20.5179 57.798 21.3015L52.3641 20.1522C52.2066 20.1261 52.0491 20.1522 51.9179 20.2306C51.7866 20.3089 51.7078 20.4395 51.6553 20.5963L50.0015 28.3803C46.5102 28.4848 43.3863 29.5035 41.1288 31.1491C40.5512 30.6006 39.7375 30.2349 38.8712 30.2349C37.0599 30.2349 35.5898 31.6976 35.5898 33.5C35.5898 34.8321 36.3774 35.9553 37.5324 36.4777C37.4799 36.7912 37.4537 37.1308 37.4537 37.4703C37.4537 42.4855 43.3076 46.5343 50.5528 46.5343C57.798 46.5343 63.652 42.4855 63.652 37.4703C63.652 37.1308 63.6257 36.8173 63.5732 36.5039C64.6495 35.9814 65.4633 34.8321 65.4633 33.5ZM43.0188 35.8247C43.0188 34.5448 44.0689 33.5 45.3551 33.5C46.6414 33.5 47.6915 34.5448 47.6915 35.8247C47.6915 37.1046 46.6414 38.1495 45.3551 38.1495C44.0689 38.1495 43.0188 37.1046 43.0188 35.8247ZM56.0655 41.9631C54.4642 43.5565 51.4191 43.661 50.5266 43.661C49.634 43.661 46.5627 43.5304 44.9876 41.9631C44.7514 41.728 44.7514 41.3362 44.9876 41.1011C45.2239 40.8661 45.6177 40.8661 45.8539 41.1011C46.8514 42.0937 49.004 42.4594 50.5528 42.4594C52.1016 42.4594 54.2279 42.0937 55.2517 41.1011C55.488 40.8661 55.8817 40.8661 56.118 41.1011C56.3017 41.3623 56.3017 41.728 56.0655 41.9631ZM55.6455 38.1495C54.3592 38.1495 53.3091 37.1046 53.3091 35.8247C53.3091 34.5448 54.3592 33.5 55.6455 33.5C56.9318 33.5 57.9818 34.5448 57.9818 35.8247C57.9818 37.1046 56.9318 38.1495 55.6455 38.1495Z" fill="white"/>
</svg>
